<?xml version="1.0" encoding="utf-8"?>
<!-- Generator: Adobe Illustrator 25.2.1, SVG Export Plug-In . SVG Version: 6.00 Build 0)  -->
<svg version="1.1" id="Layer_1" xmlns="http://www.w3.org/2000/svg" xmlns:xlink="http://www.w3.org/1999/xlink" x="0px" y="0px"
	 viewBox="0 0 41.8 41.3" style="enable-background:new 0 0 41.8 41.3;" xml:space="preserve">
<style type="text/css">
	.st0{fill:#00008B;}
	.st1{fill-rule:evenodd;clip-rule:evenodd;fill:#00008B;}
</style>
<g>
	<path class="st0" d="M22.3,31.5c0-0.1,0-0.1-0.1-0.2l-0.1-0.1l-0.1,0c0-0.1-0.1-0.1-0.1-0.2c0-0.1-0.1-0.1-0.1-0.2l-0.2-0.5l0,0
		c0-0.1,0-0.1-0.1-0.2l-0.1-0.1l0,0l0-0.1c0,0,0-0.1-0.1-0.1l0,0l-0.1-0.2c0-0.1,0-0.2,0-0.3c0-0.2,0-0.5,0-0.7
		c0.1-0.1,0.1-0.2,0.2-0.3c0.1-0.2,0.2-0.3,0.4-0.5c0.2-0.1,0.5-0.2,0.7-0.3l0.3-0.2c0.2-0.1,0.3-0.1,0.5-0.1c0.2,0,0.4,0.1,0.5,0.1
		c0.1,0.1,0.2,0.1,0.3,0.2c0.2,0.2,0.4,0.5,0.4,0.8c0,0.2,0,0.4,0,0.6c0,0.2,0,0.3,0,0.5l0,0.4l0,0.4c0,0.2,0,0.3,0,0.5
		c0,0.2,0,0.3,0,0.5c0,0.1-0.1,0.2-0.1,0.2c-0.1,0.1-0.1,0.2-0.2,0.3c-0.1,0.1-0.3,0.2-0.5,0.2c-0.2,0.1-0.5,0.1-0.7,0
		C22.9,32.1,22.6,31.8,22.3,31.5L22.3,31.5c0,0,0-0.1,0-0.1C22.2,31.4,22.2,31.4,22.3,31.5z M23.7,28.1
		C23.7,28.1,23.8,28.1,23.7,28.1C23.6,28,23.4,28,23.3,28c-0.2,0-0.3,0.1-0.5,0.1c-0.2,0.1-0.4,0.2-0.6,0.3l-0.2,0.1
		c-0.1,0.1-0.1,0.2-0.2,0.3c-0.1,0.1-0.1,0.2-0.1,0.3l0,0.1l0,0c0.1,0.1,0.1,0.2,0.2,0.4l0.1,0.2l0,0c0,0,0,0.1,0,0.1
		c0,0.1,0,0.1,0.1,0.2l0,0l0.2,0.3c0,0,0.1,0.1,0.1,0.2l0.1,0.2c0,0.1,0.1,0.2,0,0.3l-0.1,0c0,0,0,0.1,0,0.1l0.1,0.3l0,0
		c0.1,0.1,0.3,0.2,0.5,0.3c0.3,0.1,0.6-0.1,0.8-0.4c0-0.1,0-0.1,0-0.2c0-0.2,0-0.3,0-0.5l0-0.5c0-0.1,0-0.2,0-0.4l0-0.4l0-0.4
		c0-0.1,0-0.2,0-0.3c0-0.1,0-0.1,0-0.2L23.7,28.1z M22.6,31.3L22.6,31.3c0,0,0.1,0.1,0.1,0.2l0,0L22.6,31.3c0-0.1,0-0.1-0.1-0.2
		L22.5,31l0,0L22.6,31.3L22.6,31.3z M21.8,28.4L21.8,28.4L21.8,28.4l-0.2,0.1 M21.6,28.6L21.6,28.6L21.6,28.6l0.1,0l0-0.2l0.1,0
		L21.6,28.6z M21.4,29.6L21.4,29.6L21.4,29.6L21.4,29.6l0.2-0.1c-0.1,0-0.1,0-0.1,0.1L21.4,29.6L21.4,29.6z M22.9,31.7L22.9,31.7
		c-0.1,0.1-0.1,0.1,0,0.1l0,0l0.1,0.1l0.1,0c0.1,0,0,0,0-0.1l0,0C23,31.8,23,31.8,22.9,31.7L22.9,31.7z M22.1,28.1l-0.2,0.1
		c0,0,0,0,0,0.1c0,0,0.1,0,0.1-0.1c0,0,0,0,0,0L22.1,28.1L22.1,28.1z M22.2,31.2L22.2,31.2l0.1,0.1c0,0,0,0.1,0,0.1l0,0.1l0,0
		l0.1,0.1l0,0l0-0.1l0,0L22.2,31.2z M21.7,29.9L21.6,30c0,0-0.1,0.1,0,0.1l0.2-0.1L21.7,29.9z M22.5,30.6L22.5,30.6l0.1,0.1l0,0
		C22.5,30.7,22.5,30.7,22.5,30.6L22.5,30.6L22.5,30.6L22.5,30.6z M21.9,29.5L21.9,29.5l-0.1-0.1l0,0L21.9,29.5z M22,30.9L22,30.9
		L22,30.9L22,30.9L22,30.9z"/>
	<path class="st1" d="M31.8,3.1L31.8,3.1c-0.2-0.2-0.4-0.3-0.5-0.5c-0.4-0.3-0.7-0.6-1.1-0.9c-0.2-0.2-0.5-0.3-0.7-0.4
		c-0.1-0.1-0.3-0.1-0.4-0.2l-1.6-0.6c-0.1-0.1-0.3-0.1-0.4-0.1c-0.1,0-0.3-0.1-0.5-0.1c-0.1-0.1-0.3-0.1-0.4-0.1c-0.2,0-0.4,0-0.5,0
		c0,0.1,0.2,0.2,0.3,0.4c0.2,0.3,0.3,0.6,0.5,0.9c0.1,0.3,0.3,0.7,0.3,1C26.9,3.1,27,3.7,27,4.2h-0.3c-0.1,0-0.2,0-0.3,0
		c-0.2-0.1,0,0-0.2,0c-0.2,0-0.3,0-0.5,0.1l-0.4,0.1c-0.2-0.2-0.3-0.5-0.4-0.7l0-0.1c-0.1-0.2-0.2-0.4-0.3-0.6
		c-0.1-0.1-0.1-0.2-0.1-0.2c0-0.1-0.1-0.2-0.1-0.3c0-0.1-0.1,0-0.1,0.1c0,0.2-0.1,0.4-0.2,0.6c0,0.1,0,0.1-0.1,0.2
		c-0.1,0.1-0.5,0-0.6,0c-0.3,0.1-0.7,0.2-1,0.3c-0.2,0.1-0.3,0.2-0.4,0.3l-0.2-0.1c-0.1-0.1-0.4-0.1-0.5-0.2c-0.1,0,0-0.1-0.1-0.1
		c-0.3,0-0.3-0.3-0.4-0.2c0,0,0.1,0.1,0.1,0.1C21,3.8,21.2,4,21.4,4.2c0.2,0.2,0.4,0.4,0.6,0.7L22,5.1c0.2,0.2,0.3,0.4,0.4,0.6
		c-0.4,0.1-0.8,0.1-1.3,0C20.6,5.5,20,5.3,19.5,5l-0.2-0.2c-0.2-0.2-0.5-0.4-0.7-0.7c-0.2-0.2-0.4-0.5-0.6-0.8
		c-0.2-0.3-0.3-0.6-0.4-0.9l-0.1-0.5c-0.1-0.2-0.1-0.4-0.1-0.6c0-0.2-0.1-0.4,0-0.6c0-0.2,0-0.2,0-0.3s0.1-0.2,0-0.3
		c-0.1-0.1-0.1,0.1-0.1,0.1c0,0-0.1,0.1-0.1,0.1c0,0-0.1,0.1-0.1,0.2L16.6,1c-0.1,0.2-0.2,0.3-0.3,0.5c-0.1,0.2-0.1,0.2-0.2,0.4
		S16,2.1,16,2.1c0,0.1-0.2,0.5-0.2,0.7s0,0.2,0,0.2l-0.1,0.7c0,0.1,0,0.2,0,0.2c-0.1,0.7,0,1.1,0,1.7c0,0.5,0,1.1,0.2,1.6L16,8.4
		l0.4,1c0.1,0.1,0.1,0.2,0.2,0.4c0.1,0.2,0.1,0.1,0.1,0.2c0.1,0.2,0.3,0.5,0.4,0.7l0.3,0.5c0.1,0.2,0.3,0.5,0.5,0.7
		c0.1,0.1,0.1,0.3,0.2,0.3l0.1,0.1c0.2,0.3,0.4,0.6,0.7,0.8c0.1,0,0.1-0.1,0.1-0.1c0,0,0-0.1,0-0.1c-0.1-0.3-0.1-0.6-0.1-0.9v-1.4
		c0-0.3,0.1-0.6,0.2-0.9c0-0.1,0.1-0.3,0.2-0.4c0.1-0.2,0.3-0.5,0.4-0.7c0.1-0.2,0.3-0.3,0.5-0.4c0.1-0.1,0-0.1,0.2-0.1
		C20.4,8,20.6,8,20.8,8c0.5,0,0.6,0.8,0.8,0.9c0.2,0,0.3-0.3,0.4-0.4c0.1-0.1,0.1,0,0.1,0c0,0,0,0,0.1-0.1c0.2-0.1,0.4-0.1,0.6,0
		c0.3,0.2,0.5,0.4,0.7,0.6c0.1,0.2,0.2,0.4,0.3,0.6c0,0.1,0,0,0,0.1c0,0,0-0.1,0.1-0.2c0.1-0.4,0.4-0.8,0.7-1
		c0.2-0.1,0.5-0.2,0.8-0.2c0.1,0,0.3,0,0.4,0.1C26,8.6,25.9,8.7,26,8.8c0.1,0,0.2-0.4,0.5-0.5c0.3-0.1,0.6-0.1,0.9,0
		c0.2,0.1,0.4,0.3,0.5,0.4c0,0,0.1,0.1,0.1,0.1c0,0.1,0.1,0.2,0.2,0.3c0,0.1,0,0.1,0.1,0.2c0,0,0-0.5,0-0.7c0-0.2,0.1-0.4,0.2-0.6
		c0.2-0.2,0.4-0.4,0.6-0.5c0.2-0.1,0.2,0,0.3,0c-0.1-0.3,0-0.6,0.2-0.9c0.3-0.4,0.7-0.5,1.2-0.4c0.2,0,0.5,0.1,0.7,0.1
		c0.1,0,0.1,0.1,0.2,0.1l0.4,0.2L33,7.2c0.3,0.3,0.6,0.8,0.7,1.2c0.1,0.2,0.1,0.5,0.1,0.7c0,0.1,0,0.2,0,0.2c0,0.1,0.1,0,0.1-0.1
		C34,9,34,8.8,34.1,8.6c0.1-0.5,0.1-1,0-1.5c0-0.3-0.1-0.6-0.2-0.9l-0.2-0.5c-0.1-0.2-0.2-0.5-0.4-0.7c-0.2-0.4-0.5-0.8-0.8-1.1
		C32.3,3.6,32.1,3.4,31.8,3.1"/>
	<path id="Path_215" class="st1" d="M9.7,35.8c3.4,5.5,10.6,7.1,16,3.7s7.1-10.6,3.7-16c-3.4-5.5-10.6-7.1-16-3.7
		C7.9,23.1,6.3,30.3,9.7,35.8z M11.2,34.8c-2.9-4.6-1.5-10.6,3.1-13.5s10.6-1.5,13.5,3.1s1.5,10.6-3.1,13.5
		C20.1,40.8,14.1,39.4,11.2,34.8z"/>
	<path id="Path_216" class="st1" d="M20.8,18.2c-0.1,0.5,0.2,1,0.7,1.1c0.5,0.1,1-0.2,1.1-0.7c0,0,0,0,0,0c0,0,1.7-8.7,1.2-8.8
		C23.3,9.6,20.8,18.2,20.8,18.2z"/>
	<path class="st0" d="M20.7,30.6c-0.1-0.2-0.1-0.4-0.2-0.6l-1.8-3.7l-0.3-0.4l-0.1-0.3L18,25.1l-0.3-0.5c-0.2-0.3-0.3-0.5-0.5-0.8
		l-0.3-0.7c-0.2-0.3-0.3-0.6-0.4-0.9c-0.1-0.2-0.1-0.4-0.1-0.6c0-0.2,0.1-0.4,0.2-0.6c0.1-0.2,0.3-0.3,0.5-0.4c0.1,0,0.3,0,0.4,0
		c0.2,0.1,0.3,0.2,0.5,0.3c0.2,0.2,0.4,0.5,0.5,0.8l0.5,1.1l0.3,0.7c0.1,0.3,0.2,0.5,0.3,0.7c0.2,0.5,0.4,1,0.5,1.5
		c0.1,0.2,0.2,0.5,0.3,0.8l0.1,0.5c0.1,0.3,0.1,0.5,0.2,0.8c0.1,0.3,0.1,0.5,0.2,0.7l0.1,0.7l0.1,0.7l0.3,1.4c0,0.1,0,0.2,0.1,0.2
		c0,0.1,0.1,0.1,0.1,0.2c0,0.1,0,0.1,0,0.2c0,0.1,0,0.2-0.1,0.3l0,0.1l0.9,1c0,0,0.1,0.1,0.1,0l0,0c0.1,0,0.1,0.1,0.1,0.1
		c0,0.1,0,0.1,0.1,0.1l0,0c0,0,0,0.1,0,0.1c0,0.1,0,0.1,0.1,0c0-0.1,0.1,0,0.1,0c0,0,0.1,0,0.1,0c0.1,0,0.1,0,0.2,0.1c0,0,0,0,0,0
		c0.1,0,0.1,0,0.2,0c0.2,0,0.5-0.2,0.6-0.4c0.1-0.1,0.2-0.2,0.2-0.2c0.1,0,0.2,0,0.2,0l0,0.1c0,0.1,0.1,0.1,0.1,0.1l0,0.1
		c0,0,0,0.1,0.1,0.1c0.1,0,0.2,0,0.2,0.1c0,0,0.1,0.1,0.1,0.1c0.1,0.1,0.2,0.2,0.3,0.3l0.2,0.2c0.1,0.1,0.1,0.2,0.1,0.3
		c0,0.1-0.1,0.2-0.3,0.3c-0.1,0-0.1,0.1-0.2,0.1l-0.1,0.2c-0.2,0.2-0.4,0.5-0.6,0.7c-0.3,0.4-0.7,0.7-1.2,1
		c-0.6,0.3-1.2,0.6-1.8,0.7l0,0c-0.1,0-0.4,0-0.4-0.1c0,0-0.1-0.1-0.1-0.1l0.1-0.4c0-0.1,0.1-0.1,0.1-0.1c0.1,0,0.2,0,0.3-0.1
		c0.2-0.2,0.4-0.4,0.5-0.7c0.2-0.3,0.2-0.6,0-0.8c-0.1-0.2-0.3-0.4-0.4-0.6c-0.1-0.1-0.2-0.3-0.2-0.4c0,0,0-0.1-0.1-0.1l-1.1-1.1
		c-0.1-0.1-0.2-0.1-0.2-0.1c-0.1,0-0.1,0-0.2,0c-0.1,0-0.1-0.1-0.1-0.1c-0.1-0.1-0.1-0.1-0.2-0.2c-0.4-0.2-0.7-0.4-1-0.7
		c-0.5-0.5-1-1-1.5-1.5l-2-1.9l-0.9-0.8c-0.1-0.1-0.1-0.2,0-0.2c0-0.1,0.1-0.2,0.1-0.3l0-0.1l-0.1-0.1c-0.2-0.2-0.3-0.4-0.5-0.6
		l-0.2-0.2c0,0-0.1-0.1,0-0.1c0.1-0.1,0.1-0.3,0.3-0.4c0.1-0.1,0.3-0.2,0.4-0.3c0,0,0.1,0,0.1,0L15,26c0.1,0.1,0.1,0.1,0.2,0
		c0.1-0.1,0.2-0.2,0.3-0.4c0.2-0.3,0.5-0.3,0.8-0.2c0.2,0.1,0.3,0.3,0.4,0.5c0.1,0.3,0.1,0.6,0.2,0.9c0.1,0.4,0.3,0.7,0.6,1l0.8,0.8
		l1.4,1.4c0.1,0.2,0.3,0.3,0.5,0.5c0.3,0.2,0.5,0.5,0.6,0.8c0.1,0.1,0.1,0.3,0.1,0.5c0,0.1,0.1,0.1,0.1,0.2c0-0.1,0-0.1,0-0.2
		c0-0.1,0-0.1,0-0.2c0-0.1,0-0.2,0-0.2l0-0.2c0-0.1,0-0.1,0.1-0.1C20.8,30.8,20.8,30.7,20.7,30.6z M20.2,28.3l0-0.2l-0.1-0.3
		c0-0.2-0.1-0.3-0.1-0.5l-0.1-0.3c0-0.1,0-0.2-0.1-0.3l0,0l-0.1-0.3l-0.2-0.5l0-0.1c0,0,0-0.1-0.1-0.1l0,0c0-0.1,0-0.2-0.1-0.3
		l-0.1-0.2c0-0.2-0.1-0.3-0.2-0.5c-0.2-0.4-0.3-0.9-0.5-1.3c-0.1-0.4-0.3-0.8-0.5-1.2l-0.4-0.8c-0.1-0.1-0.2-0.2-0.3-0.3
		c0,0-0.1-0.1-0.1-0.1c-0.1-0.1-0.3,0-0.4,0.1c-0.1,0.1-0.2,0.3-0.2,0.4c-0.1,0.3,0,0.7,0.1,1l0.2,0.4l0.2,0.2l0.6,1.2l0.2,0.3
		l0.2,0.3l0.3,0.4l0.3,0.3l0.3,0.4l0.2,0.3c0.1,0.1,0.1,0.3,0.2,0.4l0.6,1.3c0.1,0.2,0.2,0.4,0.3,0.6l0,0.1
		C20.3,28.5,20.2,28.4,20.2,28.3z M24.3,35.4c-0.1-0.1-0.3-0.1-0.4,0c-0.1,0.1-0.2,0.2-0.2,0.3l0,0c0,0,0,0,0,0c0,0.1,0,0.2,0.1,0.3
		l0,0c0.2,0,0.4-0.1,0.5-0.3C24.3,35.6,24.3,35.5,24.3,35.4L24.3,35.4z M21,32.6c0,0-0.1,0-0.1,0.1l0,0.1l0.7,0.7l0.5,0.4
		c0,0,0,0,0.1,0c0,0,0,0,0-0.1l-0.1-0.1c-0.2-0.3-0.5-0.5-0.7-0.7L21,32.6L21,32.6L21,32.6z M23.6,34.2l-0.3-0.1
		c-0.2-0.1-0.3-0.1-0.4-0.2c-0.1-0.1-0.2-0.1-0.2-0.1l0,0c0,0,0,0,0,0c-0.1,0-0.1,0-0.1,0.1c0,0.1-0.1,0.1,0.1,0.1s0.3,0.1,0.5,0.2
		C23.2,34.2,23.4,34.3,23.6,34.2L23.6,34.2L23.6,34.2z M14.1,25.6c0,0,0.1,0.1,0.1,0.1c0.1,0.1,0.2,0.2,0.2,0.2l0.1,0.1
		c0.1,0.2,0.2,0.3,0.3,0.4l0.1,0.1l0,0c0,0,0.1,0,0.1,0c0,0,0-0.1,0-0.1l-0.3-0.3c-0.1-0.1-0.3-0.3-0.4-0.4L14.1,25.6L14.1,25.6
		L14.1,25.6z M21.5,37.5c0-0.1,0-0.2-0.1-0.3c0,0-0.1-0.1-0.1,0c-0.1,0.1-0.1,0.2-0.1,0.2l0,0c0,0,0,0.1,0,0.1
		c0.1,0,0.2,0.1,0.3,0.1C21.5,37.6,21.6,37.6,21.5,37.5C21.6,37.5,21.5,37.5,21.5,37.5L21.5,37.5L21.5,37.5L21.5,37.5z M22.1,34.4
		l0.1,0.3c0,0.1,0,0.1,0.1,0.1s0.1,0,0.1,0L22.1,34.4c0-0.1,0.1-0.1,0.1-0.2l0,0c0,0,0-0.1,0-0.1c0,0-0.1,0-0.1,0l-0.2,0.2
		c0,0,0,0.1,0,0.1C21.9,34.4,22.1,34.4,22.1,34.4z M20.5,32.1c0.1,0.1,0.1,0.2,0.2,0.2c0,0,0.1,0,0.1,0l0.1,0l0-0.1L20.5,32.1
		L20.5,32.1C20.4,32.1,20.4,32.1,20.5,32.1z M21.8,36.9c0.1,0,0.1-0.1,0.2-0.2c0.1-0.1,0.2-0.3,0.3-0.5c0.1-0.1,0.1-0.2,0.1-0.3
		l0-0.1C22.3,36.3,22.1,36.6,21.8,36.9L21.8,36.9z M24.3,36L24.3,36c0.1-0.1,0.1-0.3,0-0.5c0,0.1,0.1,0.2,0,0.3
		C24.3,35.9,24.3,36,24.3,36L24.3,36z M23.6,36.1c0.1,0.1,0.2,0.2,0.3,0.1l0-0.1C23.8,36.2,23.7,36.2,23.6,36.1L23.6,36.1L23.6,36.1
		z"/>
</g>
</svg>
