<svg id="Layer_1" data-name="Layer 1" xmlns="http://www.w3.org/2000/svg" viewBox="0 0 41.76 28.73"><defs><style>.cls-1,.cls-2{fill:#00008b;}.cls-2{fill-rule:evenodd;}</style></defs><path class="cls-1" d="M1.94,10a.28.28,0,0,0,0-.18V9.67H1.87a.67.67,0,0,1,0-.2.67.67,0,0,1,0-.2v-.5h0a.43.43,0,0,0,0-.16V8.47h0V8.41a.15.15,0,0,0,0-.13h0V8.07A1.09,1.09,0,0,1,2,7.77a2.59,2.59,0,0,1,.32-.59A1.94,1.94,0,0,1,2.6,7a2.27,2.27,0,0,1,.55-.25,3.05,3.05,0,0,1,.74,0h.36a1.59,1.59,0,0,1,.47.14,1.19,1.19,0,0,1,.4.34,1.17,1.17,0,0,1,.17.31,1.21,1.21,0,0,1,0,.88c-.06.17-.13.33-.2.5s-.13.3-.19.46l-.16.39-.17.38c-.06.15-.12.29-.19.43a1.32,1.32,0,0,1-.23.42.78.78,0,0,1-.2.16,1.08,1.08,0,0,1-.29.13,1.06,1.06,0,0,1-.5,0A1.08,1.08,0,0,1,2.51,11a1.8,1.8,0,0,1-.55-.9V10a.15.15,0,0,1,0-.13A.24.24,0,0,0,1.94,10ZM4.67,8V8h0a.47.47,0,0,0-.08-.38.48.48,0,0,0-.29-.23,3.4,3.4,0,0,0-.46-.09,3,3,0,0,0-.6,0L3,7.33a.68.68,0,0,0-.26.15,1.36,1.36,0,0,0-.24.24v.07h0a.9.9,0,0,1,0,.4v.18h0a.21.21,0,0,1,0,.11.43.43,0,0,0,0,.16h0V9a.43.43,0,0,1,0,.16v.23a.5.5,0,0,1-.06.24H2.38a.17.17,0,0,0,0,.1V10h0a1.31,1.31,0,0,0,.28.45.57.57,0,0,0,.8,0,.4.4,0,0,0,.1-.15,2.35,2.35,0,0,0,.19-.43l.18-.4a1,1,0,0,1,.14-.33l.14-.33.15-.4c0-.1.09-.2.12-.3a.4.4,0,0,0,.07-.18ZM2.3,10h0a.43.43,0,0,1,0,.16h0V10a.61.61,0,0,0,0-.19V9.69h0V10A.09.09,0,0,1,2.3,10Zm.49-2.86V7.12H2.72l-.18.06a0,0,0,0,0,0,.07h0v.07h.09l.09-.15h.07ZM1.94,8v.1h0V8h.21c-.09,0-.1,0-.12.09H2Zm.43,2.49H2.31c-.06,0-.08,0,0,.09h0l.08.11h.08c.08,0,0,0,0-.06h0a.21.21,0,0,0-.06-.1ZM3.15,7H2.89a.06.06,0,0,0,0,.06A.07.07,0,0,0,3,7h.16ZM2,9.71H2v.12a.14.14,0,0,1,0,.09V10H2v.15H2v-.09H2V9.71Zm.14-1.29H1.94s-.09.07-.08.11h.22Zm.35.91h0v.14h0a.09.09,0,0,0,0-.07V9.34h0Zm0-1.21h0V8h0ZM2,9.38H2v.09H2Zm-.16-.2a3.69,3.69,0,0,0,0-.47Zm.75,0V8.81h0a2.3,2.3,0,0,0,0,.37Z" transform="translate(0 0)"/><path class="cls-1" d="M21.52,8Z" transform="translate(0 0)"/><path class="cls-1" d="M21.31,8Z" transform="translate(0 0)"/><path class="cls-1" d="M21.2,8.07Z" transform="translate(0 0)"/><path class="cls-1" d="M20.58,8.5" transform="translate(0 0)"/><path class="cls-1" d="M21.15,8.11Z" transform="translate(0 0)"/><path class="cls-1" d="M21.05,8.14" transform="translate(0 0)"/><path class="cls-1" d="M21,8.2" transform="translate(0 0)"/><path class="cls-1" d="M21.15,8.1" transform="translate(0 0)"/><path class="cls-1" d="M21.45,8.15" transform="translate(0 0)"/><path class="cls-1" d="M21.5,8" transform="translate(0 0)"/><path class="cls-1" d="M21.58,8.62" transform="translate(0 0)"/><path class="cls-2" d="M6.46,14.6a13.64,13.64,0,0,0,.12,1.81c.09.42.1.85.23,1.26a1.86,1.86,0,0,0,.1.37,4.71,4.71,0,0,0,.25.75l.58,1.39A12.9,12.9,0,0,0,8.88,22a12.22,12.22,0,0,0,1.37,1.59c.16.15.31.3.51.47s.15.16.26.24c.44.32.61.52,1.12.85l.3.19c.12.07.18.13.3.2l1,.52a13.61,13.61,0,0,0,1.35.61l.18.08.51.21a2.06,2.06,0,0,0,.54.2l.92.31.39.11.58.16c.37.14.22,0,.57.16.19.06.38.1.57.14l.62.11c.41.1.83.17,1.25.23l2.27.16h.42l1.43-.07h.49l.45-.05h.47L29.27,28a23.24,23.24,0,0,0,3.06-.88,3.62,3.62,0,0,0,.71-.28c.24-.13.45-.16.7-.28s.69-.29,1-.47l.31-.09.32-.19.3-.19.46-.29.12-.1a11.52,11.52,0,0,0,2.12-1.82c.06-.08.06,0,.11-.14s.09-.08.16-.16h0V23a3.26,3.26,0,0,1,.34-.4c.24-.25.3-.43.41-.53s0-.09.11-.18.17-.28.3-.44l.37-.6c.06-.11.12-.2.18-.32l.32-.66a6.15,6.15,0,0,0,.28-.71,1.36,1.36,0,0,1,.13-.37l.33-1.15a15.61,15.61,0,0,0,.3-1.66,8.09,8.09,0,0,0,0-1.84v-.47a12.21,12.21,0,0,0-.3-1.69l-.1-.37c-.08-.36-.34-1-.36-1.13a4.5,4.5,0,0,0-.45-1c-.25-.41-.47-.87-.73-1.24-.14-.2-.26-.39-.4-.58A12.86,12.86,0,0,0,38,6.07l-.51-.46a9.32,9.32,0,0,0-1.11-.88c-.22-.14-.53-.33-.75-.5l-.15-.1c-.3-.21-.65-.33-1-.53l-.17-.08-.19-.09-1-.46A23.27,23.27,0,0,0,29.26,1.7a.24.24,0,0,1-.11-.06c-.36-.08-1.78-.32-2.11-.35h-.29c-.53-.07-1.06-.11-1.6-.13H23.78a1.62,1.62,0,0,0-.44,0h-.19l-.92.07h0a10.51,10.51,0,0,0-1.47.17c-.54.12-1.13.15-1.66.3L18.32,2l-.4.1c-.61.18-1.23.36-1.85.59a2.17,2.17,0,0,1-.35.15.33.33,0,0,0-.14,0c-.14.07-.61.22-.86.36s-.45.19-.67.33l-.18.07c-.22.1-.45.18-.66.3l-.71.43h-.07l-.86.6c-.11.09-.73.57-.81.66a2,2,0,0,1-.26.24A12.13,12.13,0,0,0,9.15,7.31L9,7.44l-.4.47a11.79,11.79,0,0,0-.74,1.23l-.6,1.36-.24.74c-.08.26-.16.51-.22.77l-.2,1.23a10.26,10.26,0,0,0-.12,1.36M25,28.27H23.48A26.69,26.69,0,0,1,20.8,28a26.82,26.82,0,0,1-2.8-.6c-.41-.1-.8-.26-1.2-.37l-.65-.23a9.8,9.8,0,0,1-1.39-.55c-.46-.24-.79-.37-1.29-.65l-.61-.37a1.75,1.75,0,0,1-.29-.18L12,24.65a1.94,1.94,0,0,1-.29-.21c-.24-.22-.54-.42-.8-.64l-.13-.12c-.07-.06-.09,0-.14-.11-.22-.27-.51-.48-.71-.74a5.7,5.7,0,0,1-.46-.52A1.86,1.86,0,0,0,9.27,22,4.56,4.56,0,0,1,9,21.61l-1.16-2a8.94,8.94,0,0,1-.52-1.42c0-.14-.08-.23-.11-.38s-.06-.24-.09-.4a.54.54,0,0,0,0-.18V17a2.59,2.59,0,0,0-.09-.4,6.21,6.21,0,0,1-.13-1.29v-.84a9.61,9.61,0,0,1,.07-1.07A1.09,1.09,0,0,1,7,13a7.83,7.83,0,0,1,.33-1.51.61.61,0,0,0,0-.19.23.23,0,0,1,.08-.18,8.63,8.63,0,0,1,.39-1L7.87,10c0-.08,0-.06.08-.16l.2-.34c0-.12.1-.19.16-.31s0-.12.08-.17.06-.08.1-.15l.08-.15c0-.07,0-.07.09-.15A4.08,4.08,0,0,1,9,8a.37.37,0,0,1,.15-.13l.21-.27c.11-.13.17-.31.31-.42S9.8,7,9.88,6.9a2.73,2.73,0,0,0,.23-.25c.06-.08,0,0,.11-.11s.29-.32.36-.37l.2-.2c.08-.07.19-.19.25-.23s.1-.09.27-.21.17-.16.26-.22l.27-.2a1.24,1.24,0,0,1,.32-.23l.28-.19a18.3,18.3,0,0,1,1.85-1c.13,0,.22-.11.32-.15l1-.43a5.6,5.6,0,0,0,.68-.26,10.55,10.55,0,0,1,1.07-.39l.37-.1c.38-.11.73-.22,1.12-.3l.77-.21a23.54,23.54,0,0,1,2.5-.37,26.57,26.57,0,0,1,2.82-.09,16.57,16.57,0,0,1,1.73.12c.26,0,.55.1.83.12s1.65.28,2,.37a23,23,0,0,1,2.57.78c.44.19.91.35,1.33.57l.64.31c.51.26.7.35,1.23.67.22.13.43.25.61.37a9.6,9.6,0,0,1,1.23.89c.08.09,0,0,.14.12a1.71,1.71,0,0,1,.26.21l.5.45a9.35,9.35,0,0,1,.89,1l.41.54c.18.22.32.47.49.71a4.25,4.25,0,0,1,.27.46c0,.1.11.19.17.3a5.38,5.38,0,0,1,.31.64,3.07,3.07,0,0,0,.2.5,1.34,1.34,0,0,1,.07.18c0,.13.1.2.15.34a9,9,0,0,1,.31,1.13l.24,1.41v1.57a9.62,9.62,0,0,1-.26,2.07.72.72,0,0,1-.08.4c-.15.42-.2.85-.43,1.46a14.56,14.56,0,0,1-.94,2,16.7,16.7,0,0,1-1.19,1.7l-.57.61a5.58,5.58,0,0,1-.61.58l-.26.22c-.18.16-.35.3-.54.44a7.85,7.85,0,0,1-.84.58c-.13.06-.14.11-.29.18l-.21.13c-.09.05-.14.11-.22.15l-.16.11a15.76,15.76,0,0,1-1.6.78.49.49,0,0,0-.17.06l-.17.07-.51.2-.19.06a2,2,0,0,0-.34.14l-.38.11-.4.12-.35.11a4,4,0,0,1-.57.14l-.19.07-.78.16a26.46,26.46,0,0,1-3.31.51Z" transform="translate(0 0)"/><path class="cls-2" d="M23.15,3.91c-.26,0-1.09.08-1.48.13a18.65,18.65,0,0,0-3.32.69l-.3.11a.5.5,0,0,0-.29.07l-2.28.94a12.8,12.8,0,0,0-2.16,1.23l-.73.65A12.34,12.34,0,0,0,11.26,9.2l-.37.53c-.28.5-.44.7-.72,1.29a9.18,9.18,0,0,0-.77,4.71,8.36,8.36,0,0,0,.75,2.82c.11.21.2.49.33.69l.7,1.1a3.83,3.83,0,0,1,.36.44,6.79,6.79,0,0,0,.77.84c.08.07.16.12.22.18s.12.14.2.21c.27.24.59.45.91.7l.23.15.25.16c.17.1.36.18.53.28s.45.23.64.35l.42.19.55.25c.09.05.2.07.28.12s1.69.62,2.07.74a8.08,8.08,0,0,0,1.29.31,4.77,4.77,0,0,1,.65.17c.22,0,.46.09.68.11l.69.09c.5.06,1,.09,1.5.1h.8a13.36,13.36,0,0,0,1.55,0,2.62,2.62,0,0,0,.74-.07c.23-.07.71-.07,1.06-.13l.68-.13.33-.07,1-.23c.15,0,.16-.07.29-.1a17.29,17.29,0,0,0,2-.65l.68-.33.28-.13c.52-.28,1-.52,1.55-.85l.24-.17.24-.17.45-.34.22-.19.22-.18.41-.38.19-.23c.23-.27.51-.56.73-.87.06-.08.11-.17.17-.24a4.76,4.76,0,0,0,.31-.47l.22-.4a.83.83,0,0,0,.08-.12l.25-.55a4.12,4.12,0,0,0,.23-.58c.06-.19.13-.38.19-.59a10,10,0,0,0,.25-4.32,3.14,3.14,0,0,0-.13-.68,1.71,1.71,0,0,0-.09-.3l-.19-.62a9.39,9.39,0,0,0-.8-1.66l-.42-.74a9,9,0,0,0-1.6-1.66l-.47-.35c-.14-.1-.35-.26-.48-.34a5.15,5.15,0,0,0-.45-.32l-.55-.3c-.18-.09-.37-.17-.53-.26S32.25,5.62,32,5.5l-.59-.23c-.17-.06-.29-.14-.56-.23l-1.21-.4c-.13,0-.19-.06-.32-.09L28,4.25a3.82,3.82,0,0,0-.66-.12C27,4.13,26.61,4,26.24,4a29,29,0,0,0-3.09-.08M23,4.24h.68a20.49,20.49,0,0,1,2.48.12,17,17,0,0,1,2.66.37l.25.06.23.07.47.14c.17.08,1.26.39,1.58.56l.2.17a11.28,11.28,0,0,1,1.27.59L34,7l.38.23c.24.16.46.35.69.53l.32.29.63.59a10.1,10.1,0,0,1,.84,1l.12.2.35.55a8.7,8.7,0,0,1,1.21,3.7,1.5,1.5,0,0,0,0,.3,9.25,9.25,0,0,1-.18,2.23,11.12,11.12,0,0,1-.66,2.1c-.06.14-.13.27-.2.41a6,6,0,0,1-.45.77,10.84,10.84,0,0,1-.79,1l-.61.62a7.87,7.87,0,0,1-1.36,1.08c-.18.12-.4.22-.58.35a5.3,5.3,0,0,1-.57.33l-.1.06-1.16.54-.43.18-.88.34-2.92.74c-.31.05-.72.13-1.05.17s-.76,0-1.13.09a16.7,16.7,0,0,1-3,0l-2.14-.31a15,15,0,0,1-1.48-.32l-.46-.15c-.41-.11-.58-.2-.92-.31a3.34,3.34,0,0,1-.44-.17L16.58,24c-.42-.18-.83-.4-1.25-.59l-1.9-1.15c-.24-.19-.45-.34-.67-.55l-.32-.29a8.24,8.24,0,0,1-.56-.62,5,5,0,0,1-.54-.67,9.16,9.16,0,0,1-.7-1.16c-.08-.15-.12-.27-.2-.42A10.88,10.88,0,0,1,10,17.16a7.31,7.31,0,0,1-.29-1.55,10.26,10.26,0,0,1,0-1.92,6.36,6.36,0,0,1,.14-.76.4.4,0,0,1,.06-.26c.06-.09,0-.11,0-.24a2.74,2.74,0,0,1,.19-.49l.1-.24a7.11,7.11,0,0,1,.76-1.57,9.53,9.53,0,0,1,1.31-1.72,9,9,0,0,1,1.63-1.33c.57-.35,1-.54,1.52-.82.36-.18.75-.36,1.11-.51l1-.37c.51-.18,1.52-.5,2-.61h.28l.51-.14A24.37,24.37,0,0,1,23,4.24Z" transform="translate(0 0)"/><path class="cls-2" d="M26.58,20.9h.08c.08,0,0,.05,0,.08l-.48.62c-.26.34-.67,1-.92,1.31-.11.14-.23.32-.37.47s-.09.08-.07.21c.27.05,1.28,0,1.64,0l1.56.07a11.22,11.22,0,0,0,1.64,0c.51-.17.6-.62.54-1.16a1.94,1.94,0,0,0-.68,0,.66.66,0,0,1-.06.39,29.73,29.73,0,0,1-3.27,0c.29-.45.6-.88.93-1.3.47-.71.59-.71,1.56-.64.39,0,.82-.08.88.25v.37h.59c.12,0,.12-.76,0-1s-.39-.26-.86-.32a2.53,2.53,0,0,0-.55,0L27,20.2c-.9,0-1.61-.21-2.23.6l-.74,1h-1.7a15.69,15.69,0,0,0,0-1.68,2.09,2.09,0,0,0-.5,0h-.5L19.2,23.05a1.37,1.37,0,0,0-.29.42c.1.08.23,0,.36,0,.62,0,.39.09.66-.27l.1-.13c.13-.19.46-.58.52-.7a4.81,4.81,0,0,1,1,.07c.06.08-.13,1,0,1.09a6.91,6.91,0,0,0,.91,0,2.17,2.17,0,0,0,.88-.09,2,2,0,0,0,1-.93c.27-.38.55-.75.81-1.11.12-.17.27-.43.46-.51a3.32,3.32,0,0,1,.89,0m-5.57.88c0-.1.08-.16.12-.23a2.93,2.93,0,0,1,.51-.65v.88a2.44,2.44,0,0,1-.54,0Zm1.32,1.06v-.41h1.22a.78.78,0,0,1-.17.26c-.11.29-.55.2-1,.16Z" transform="translate(0 0)"/><path class="cls-2" d="M35.49,22.56a2.37,2.37,0,0,0,.32.39l.3.37c-.23,0-1-.62-1.25-.35s.09.6.2.77a11.17,11.17,0,0,0,.82,1,1.09,1.09,0,0,0,.36-.28c0-.08-.64-.77-.68-.89a3.79,3.79,0,0,1,.42.18l.42.19c.14.06.31.17.46.08.38-.22-.06-.59-.18-.75-.26-.35-.54-.68-.83-1a1.12,1.12,0,0,0-.36.29" transform="translate(0 0)"/><path class="cls-2" d="M35,24.73a1.06,1.06,0,0,0-1-1.11h0a1,1,0,0,0-1,1,1,1,0,0,0,.32.74,1.07,1.07,0,0,0,1.1.26,1,1,0,0,0,.64-.88m-1,.42a.5.5,0,0,1,0-1,.52.52,0,0,1,.52.49.49.49,0,0,1-.41.54H34Z" transform="translate(0 0)"/><path class="cls-2" d="M11.78,22.73a1.6,1.6,0,0,0-.28-.4L11.15,22a.82.82,0,0,0-.34.27c0,.19.26.24.21.39a.5.5,0,0,1-.52-.48.49.49,0,0,1,.47-.52.56.56,0,0,1,.31.09c.39.27.12.55.37.58h.13a.49.49,0,0,0,.24,0,1,1,0,0,0-.4-.93,1,1,0,0,0-1.41.13h0a.57.57,0,0,0-.12.18A1,1,0,0,0,10.44,23a1.09,1.09,0,0,0,1.34-.21" transform="translate(0 0)"/><path class="cls-2" d="M30.07,25.26a2.37,2.37,0,0,0,.11.46,2,2,0,0,1,.13.48c-.15,0-.58-.76-.85-.82a.31.31,0,0,0-.35.19,2.47,2.47,0,0,0,.17.89,6.92,6.92,0,0,0,.25.89,2.37,2.37,0,0,0,.46-.11,3.18,3.18,0,0,0-.14-.53,4.44,4.44,0,0,1-.15-.52l.78.8c.17.18.55.13.46-.26l-.36-1.51c-.07-.1-.12-.08-.22-.06a.51.51,0,0,0-.24.1" transform="translate(0 0)"/><path class="cls-2" d="M9.44,19.27a1,1,0,1,0-.08,2,1,1,0,0,0,.35-.05,1,1,0,1,0,.08-2,1,1,0,0,0-.35.05m0,.51a.48.48,0,0,1,.59.34h0a.49.49,0,0,1-.31.59h0a.48.48,0,0,1-.61-.32.5.5,0,0,1,.33-.61h0Z" transform="translate(0 0)"/><path class="cls-2" d="M39.79,19H39.5l-.21-.06h-.07a.28.28,0,0,1-.27-.15c0-.15,0-.23.2-.22s.19.05.17.2v.14a1.55,1.55,0,0,0,.48.13.59.59,0,0,1,.07-.26c.12,0,.45.15.61.16a1.16,1.16,0,0,0,.12-.44,1.59,1.59,0,0,0-.55-.2c-.36-.1-.88-.36-1.24-.17a.71.71,0,0,0-.3,1,.08.08,0,0,0,0,0,.69.69,0,0,0,.54.36,5,5,0,0,0,1.2.31,1.57,1.57,0,0,0,.09-.43.73.73,0,0,0-.28-.1l-.27-.1" transform="translate(0 0)"/><path class="cls-2" d="M30.91,25c0,.14.58,1.62.65,1.78a2.16,2.16,0,0,0,.43-.14c.05-.07-.19-.61-.22-.68a4.52,4.52,0,0,1-.23-.71.51.51,0,0,1,.69.65c-.08.17-.18.18-.25.27a2.86,2.86,0,0,0,.15.41.93.93,0,0,0,.62-1.16h0a.76.76,0,0,0-.17-.32.87.87,0,0,0-.78-.39,1.88,1.88,0,0,0-.89.29" transform="translate(0 0)"/><path class="cls-2" d="M14.64,25.9a1.76,1.76,0,0,0,.44.15,6.73,6.73,0,0,1,.32-.73.51.51,0,0,1,.24.1c.16.17-.16.54-.19.79a1.66,1.66,0,0,0,.47.17,3.57,3.57,0,0,0,.23-.57c.18-.44-.07-.45-.07-.62l.34-.27c0-.05.28-.22.3-.3a2.41,2.41,0,0,0-.5-.21,1.66,1.66,0,0,1-.27.26c-.1.09-.19.22-.34.21,0-.17.19-.45.19-.62a2,2,0,0,0-.42-.2A5.81,5.81,0,0,0,15,25a6,6,0,0,0-.36,1" transform="translate(0 0)"/><path class="cls-2" d="M18.84,27.32c.1-.34.18-.7.28-1.06,0-.16.1-.41.3-.3s.14.33-.19.28a1,1,0,0,0-.11.39c.12.11.29,0,.21.32a1.8,1.8,0,0,0-.1.46,2.73,2.73,0,0,0,.48.1c.28-.89.09-.77,0-1,.08-.06.11,0,.19-.12a.4.4,0,0,0,.09-.21c.15-.58-.54-.88-1-.69s-.36.42-.45.75a6.9,6.9,0,0,0-.23,1Z" transform="translate(0 0)"/><path class="cls-2" d="M13,24.89a1.09,1.09,0,0,0,.38.21h0l.48-.83c.07-.13.17-.38.36-.35s.07.41,0,.44-.15-.09-.3-.12a1.53,1.53,0,0,0-.21.4.7.7,0,0,1,.23.15c0,.15-.24.38-.29.56a.79.79,0,0,0,.4.22l.59-1a.8.8,0,0,0,.15-.6.67.67,0,0,0-.78-.53h-.16c-.2.09-.26.21-.38.4a7.52,7.52,0,0,0-.56,1" transform="translate(0 0)"/><path class="cls-2" d="M16.9,26.73c.12-.32.22-.66.33-1,.06-.15.1-.39.31-.35s.18.27.08.43c-.15,0-.19-.06-.3-.06a2.8,2.8,0,0,0-.13.41c.09.07.14,0,.26.09s-.15.44-.15.64a2.16,2.16,0,0,0,.44.1c.11-.36.33-.87.4-1.22a.67.67,0,0,0-1.21-.55,8.7,8.7,0,0,0-.43,1.21c-.05.14-.11.17.06.22a1,1,0,0,0,.34.09" transform="translate(0 0)"/><path class="cls-2" d="M22,27.46v.36h.31c.21-.06.11.07.16-.45s0-1,.24-1,.25.21.2.38h-.28c-.12.61.07.36.28.48a2.15,2.15,0,0,0,0,.62h.45c0-.09.08-1,.11-1.16a.86.86,0,0,0-.09-.5.68.68,0,0,0-.94-.21h0a.64.64,0,0,0-.25.29A3.79,3.79,0,0,0,22,27.38" transform="translate(0 0)"/><path class="cls-2" d="M37.58,23a1,1,0,0,0,.76-.47,1,1,0,0,0-.33-.32s-.38.43-.61.25a3.94,3.94,0,0,1,.36-.45,1.26,1.26,0,0,0-.31-.3c-.2.14-.3.42-.46.44-.09-.49.11-.39.2-.64a1,1,0,0,0-.33-.3.91.91,0,0,0-.28,1.16,1.09,1.09,0,0,0,1,.63" transform="translate(0 0)"/><path class="cls-2" d="M38.36,21.79s.3.27.37.25l.18-.24c.19-.27.44-.53.22-.89-.34-.57-1.15,0-1.28-.1s0,.06,0,0,.21-.29.26-.44a1.41,1.41,0,0,0-.36-.24,2.61,2.61,0,0,0-.42.62.52.52,0,0,0,.4.62h0c.3.08.65-.15.84-.16s-.16.49-.21.63" transform="translate(0 0)"/><path class="cls-2" d="M13,23.73l.07-.08h0a3.16,3.16,0,0,0,.37-.45,1.78,1.78,0,0,0-.35-.32,1.93,1.93,0,0,0-.27.3c-.09.1-.18.24-.34.24s0-.25.07-.38a2.6,2.6,0,0,0,.3-.36,1.78,1.78,0,0,0-.35-.32,2.41,2.41,0,0,0-.59.79,1,1,0,0,0,0,.41c0,.17-.34.34-.4.53a2.37,2.37,0,0,0,.34.29c.11-.05.3-.36.41-.45s.15,0,.33,0a.59.59,0,0,0,.29-.13" transform="translate(0 0)"/><path class="cls-2" d="M7.71,18.49a1.9,1.9,0,0,0,.14.48,2.84,2.84,0,0,0,.49-.17c.25-.09.19.06.43.14s.76-.15,1-.22a1.92,1.92,0,0,0-.15-.48,2,2,0,0,0-.41.13c-.14,0-.38.17-.42,0s.54-.29.72-.4a1.69,1.69,0,0,0-.14-.45,4.13,4.13,0,0,0-.5.15.73.73,0,0,0-.42.25,1,1,0,0,0-.13.22c-.06.24,0,.12-.64.37" transform="translate(0 0)"/><path class="cls-2" d="M33.93,5.85a.77.77,0,0,0,.74-.48,4.89,4.89,0,0,0-.6-.41.46.46,0,0,0-.17.28c.1.06.21.11.23.19-.25.21-.69-.15-.43-.55a.34.34,0,0,1,.45-.15.47.47,0,0,1,.29.34,1.19,1.19,0,0,0,.32-.1.76.76,0,0,0-1.51.2v.18a.71.71,0,0,0,.63.47" transform="translate(0 0)"/><path class="cls-2" d="M29.42,2.58a.77.77,0,0,0-.48.28.75.75,0,0,0,.13,1A.74.74,0,0,0,30,2.69a.71.71,0,0,0-.56-.15m.46.88a.38.38,0,0,1-.69-.3.38.38,0,0,1,.69.3Z" transform="translate(0 0)"/><path class="cls-2" d="M32.28,3.55a.88.88,0,0,0-.47.28.84.84,0,0,0-.15.57.74.74,0,0,0,.78.7h0a.75.75,0,0,0,.7-.79V4.15a.74.74,0,0,0-.82-.61h0m0,.39a.37.37,0,0,1,.44.28.36.36,0,0,1-.27.43h0a.36.36,0,0,1-.44-.25.34.34,0,0,1,.06-.32.44.44,0,0,1,.22-.1Z" transform="translate(0 0)"/><path class="cls-2" d="M8.58,9.55a3.73,3.73,0,0,1,.64.3c-.17.11-1-.14-1,.29,0,.16.41.3.69.44a4.12,4.12,0,0,0,.58.23,1,1,0,0,0,.14-.28l-.55-.26c-.09,0-.14,0-.16-.1a3.36,3.36,0,0,0,1-.09c.29-.26-.44-.51-.71-.62a2.66,2.66,0,0,0-.53-.21c0,.09-.1.21-.12.3" transform="translate(0 0)"/><path class="cls-2" d="M39.41,13.22v.34c.2.07,1-.14,1.16,0,0,.22-.14.24-.22.1s0-.09-.14-.09-.12,0-.2.06,0,.24-.19.21,0-.11-.08-.22c-.3,0-.35,0-.33.17a.43.43,0,0,0,.39.46.39.39,0,0,0,.21,0c.28-.1.15-.11.25-.18.62.43,1-.69.33-.88a4.92,4.92,0,0,0-1.21.06" transform="translate(0 0)"/><path class="cls-2" d="M14.84,4.73h0V4.67c0-.06,0,0,.07.08s.54.5.77.46c.41-.08-.22-.87-.42-1.41-.15,0-.18.09-.31.15.06.18.28.5.31.67-.22-.1-.53-.53-.8-.48a.22.22,0,0,0-.17.24c0,.13.45.94.54,1.18a1.27,1.27,0,0,0,.32-.13A1.43,1.43,0,0,0,15,5.09.83.83,0,0,0,14.93,5a.4.4,0,0,1-.09-.21" transform="translate(0 0)"/><path class="cls-2" d="M21.33,26.37h.34V26a6.77,6.77,0,0,0-1.09-.21l-.06.45.32.06a3.53,3.53,0,0,1-.08.72,4.07,4.07,0,0,0-.1.7,2,2,0,0,0,.49.06,4.45,4.45,0,0,1,.1-.72,4.16,4.16,0,0,1,.12-.69" transform="translate(0 0)"/><path class="cls-2" d="M40.72,12.4c-.24-.11-1.13.28-1.15,0s.69-.17,1.12-.3a1.41,1.41,0,0,0,0-.29c0-.11-.12-.06-.22,0-.47.07-1.33,0-1.24.7a.48.48,0,0,0,.25.38c.22.13.32,0,.53,0a1.68,1.68,0,0,0,.59-.07c.22-.07.21,0,.19-.23s0-.08,0-.14" transform="translate(0 0)"/><path class="cls-2" d="M36.08,7.24a.76.76,0,0,0,.23.24,3.86,3.86,0,0,0,.6-.54L37,6.83c.19-.16.38.09.11.27C37,7,37,6.82,36.76,7.22c.07.13.18.09,0,.26a1.14,1.14,0,0,0-.18.25.88.88,0,0,0,.25.22l.59-.56c.21-.19.4-.47.12-.79s-.56-.19-.84.07Z" transform="translate(0 0)"/><path class="cls-2" d="M8.63,13.84h.1v-.1c0-.27.17-.19-.55-.31a1,1,0,0,1-.51-.13c0-.33.26-.2.27-.19a.74.74,0,0,1,0,.21.55.55,0,0,0,.31,0v-.2l.48.06a1,1,0,0,0,0-.35,8.48,8.48,0,0,1-.88-.13.49.49,0,0,0-.61.33h0c-.09.46.21.6.57.64h.67" transform="translate(0 0)"/><path class="cls-2" d="M20.26,2.84h-.11v.3h.22c.07.17.05.32.11.48l.33-.05a4.68,4.68,0,0,0-.14-.9.53.53,0,0,0-.57-.47c-.61.12-.43.72-.37,1.06a2.43,2.43,0,0,0,.08.47,1.09,1.09,0,0,0,.36,0A6.35,6.35,0,0,0,20,3c0-.24-.07-.31.05-.36s.23.1.22.25Z" transform="translate(0 0)"/><path class="cls-2" d="M17.67,4.36l-.24-.78a.37.37,0,0,1,0-.29c.17-.11.32,0,.28.19a.16.16,0,0,0-.16.07,1.09,1.09,0,0,0,.07.3h.23c.07.13.09.3.16.44l.32-.11A9.24,9.24,0,0,0,18,3.29a.49.49,0,0,0-.6-.35h0L17.28,3c-.42.3-.14.76,0,1.31.09.27.1.12.38.07" transform="translate(0 0)"/><path class="cls-2" d="M11.58,7.73a.92.92,0,0,0,.26-.22V7.45l-.59-.62c-.11-.12-.07-.19,0-.28a.22.22,0,0,1,.21.11c0,.12,0,.11-.09.21a.63.63,0,0,0,.21.22c.11-.08.13-.2.27,0a1.25,1.25,0,0,0,.23.23,1.21,1.21,0,0,0,.24-.21,4.6,4.6,0,0,0-.55-.62c-.61-.63-1.32.12-.77.68Z" transform="translate(0 0)"/><path class="cls-2" d="M13.49,4.73c.19.49.81,1,.23,1-.16-.2-.45-.81-.54-.89S13,5,12.88,5a1.79,1.79,0,0,0,.2.39c.2.36.43.92,1,.63s0-1-.25-1.51a.51.51,0,0,0-.31.19" transform="translate(0 0)"/><path class="cls-2" d="M23.82,2.58v.59c0,.19,0,.16.2.16s.13,0,.13-.36c0-.58,0-.75.24-.72.19.3-.14.29-.16.32a.76.76,0,0,0,0,.3.5.5,0,0,0,.58-.4.49.49,0,0,0-.12-.5c-.26-.2-.85-.23-.86.61" transform="translate(0 0)"/><path class="cls-2" d="M38,19.73l1.3.67a2,2,0,0,0,.44.21,2,2,0,0,0,.2-.38,11.67,11.67,0,0,0-1.76-.9,1.44,1.44,0,0,0-.18.4" transform="translate(0 0)"/><path class="cls-2" d="M28.21,3.73a.81.81,0,0,0,.06-.31c-.2-.08-.39-.07-.39-.33l.46.1a.8.8,0,0,0,.06-.3A.86.86,0,0,1,28,2.76c.08-.24.37-.06.5-.12V2.5a.38.38,0,0,0,0-.15.7.7,0,0,0-.63,0,.73.73,0,0,0,.36,1.38" transform="translate(0 0)"/><path class="cls-2" d="M28.15,25.73c0,.1.2,1.16.25,1.41a1.82,1.82,0,0,0,.11.46l.41-.09a13.18,13.18,0,0,0-.23-1.4c0-.06,0-.44-.13-.46h-.2l-.21.06" transform="translate(0 0)"/><path class="cls-2" d="M25.91,3.39a.62.62,0,0,0,0-.33c-.18,0-.39,0-.4-.28.22,0,.42.12.47,0V2.56a1.22,1.22,0,0,0-.38-.07h-.06c.06-.25.36-.12.48-.17A.81.81,0,0,0,26,2c-1.17-.32-1.33,1.52-.2,1.42" transform="translate(0 0)"/><path class="cls-2" d="M10.15,7.33c0,.09.17.16.24.22s.24.14.14.25-.21-.07-.29-.07A1.27,1.27,0,0,0,10,7.55l-.2.27a1.47,1.47,0,0,0,.63.41c.19,0,.23-.12.38,0a1.29,1.29,0,0,0,.3.22.75.75,0,0,0,.21-.26A1.29,1.29,0,0,0,11,8c-.24-.2.12-.27-.36-.66a1.61,1.61,0,0,0-.3-.21,1.71,1.71,0,0,0-.21.26" transform="translate(0 0)"/><path class="cls-2" d="M16.15,3.39c0,.28.34.56,0,.63a1.86,1.86,0,0,1-.24-.54.85.85,0,0,0-.34.14,1.32,1.32,0,0,0,.35.67c.08.07.15.06.27.09a2.44,2.44,0,0,0,.19.44h.06l.27-.09a1.82,1.82,0,0,0-.14-.39c-.07-.17.05-.16.09-.35a1.43,1.43,0,0,0-.2-.73,2.26,2.26,0,0,0-.33.13" transform="translate(0 0)"/><path class="cls-2" d="M23.08,3c-.3.17-.56-.21-.51.37.41,0,.86.07.91-.33s-.21-.42-.37-.55-.17-.08-.12-.19h.4a.51.51,0,0,0,0-.3,1.63,1.63,0,0,0-.54,0,.39.39,0,0,0-.27.34c0,.4.5.47.49.69" transform="translate(0 0)"/><path class="cls-2" d="M13.36,6.63H13.2c0-.23.11,0,.06-.24a.36.36,0,0,0-.11-.21L13,6.1c-.13,0-.24,0-.24.1s.08,0,.15.07,0,.06-.15,0a.41.41,0,0,1-.28-.3c0-.25.11-.29.27-.43,0-.07-.11-.21-.15-.3a.7.7,0,0,0-.46.41.76.76,0,0,0,.43,1l.05,0h.35c.06,0,.36.23.44,0" transform="translate(0 0)"/><path class="cls-2" d="M35.81,7.05A.64.64,0,0,0,36,6.81c0-.07-.37-.28-.08-.6a.36.36,0,0,1,.51,0h0c.07.06,0,.08.14.11a.53.53,0,0,0,.23-.24.75.75,0,0,0-1.33.2.58.58,0,0,0,.13.66.65.65,0,0,0,.18.15" transform="translate(0 0)"/><path class="cls-2" d="M38.64,10.73A.71.71,0,0,0,39,10.6c0-.07-.23-.41.17-.6s.52.25.56.29a.69.69,0,0,0,.31-.12.66.66,0,0,0-.33-.48.81.81,0,0,0-1.1.36h0a.66.66,0,0,0,.1.66" transform="translate(0 0)"/><path class="cls-2" d="M8.89,11.67c-.05.15-.07.48-.5.4a.4.4,0,0,1-.24-.2c-.07-.17,0-.21,0-.36a.93.93,0,0,0-.33-.07c-.07.32-.1.48.08.72A.77.77,0,0,0,9,12.3H9l.17-.14a1.06,1.06,0,0,0,.12-.34c0-.09,0-.08-.13-.1h-.2" transform="translate(0 0)"/><path class="cls-2" d="M9,9a.87.87,0,0,0,.27.14c.07,0,.09-.12.13-.18a2.82,2.82,0,0,1,.49.25,3.72,3.72,0,0,0,.48.27.79.79,0,0,0,.17-.31l-.91-.53c0-.13.06-.12.1-.23a.75.75,0,0,0-.3-.17A7.07,7.07,0,0,0,9,9" transform="translate(0 0)"/><path class="cls-2" d="M18.3,2.73l.07.31c.13,0,.09-.06.26,0s.24,1,.28,1A.93.93,0,0,0,19.24,4c0-.21-.24-.87-.24-1s.14,0,.22-.09l-.07-.32a5.17,5.17,0,0,0-.86.22" transform="translate(0 0)"/><path class="cls-2" d="M37.8,8.65c-.11-.27-.42-.23,0-.53l.6-.5a1.27,1.27,0,0,0-.25-.27c-.1,0-.17.11-.25.17l-.25.21c-.36.3-.73.5-.34,1s.16.18.45,0" transform="translate(0 0)"/><path class="cls-2" d="M31.15,4.58a1.19,1.19,0,0,0,.1-.32l-.33-.15c0-.29.37-.82.33-1A1.17,1.17,0,0,0,30.9,3l-.38,1a.37.37,0,0,0,.11.48,1.42,1.42,0,0,0,.48.19" transform="translate(0 0)"/><path class="cls-2" d="M27,3.58s.08-.29,0-.33-.22,0-.36-.11c0-.28.19-.81.15-1h-.33a6.81,6.81,0,0,0-.2,1,.41.41,0,0,0,.18.42,1.84,1.84,0,0,0,.52.1" transform="translate(0 0)"/><path class="cls-2" d="M39,11.67l.34-.09c-.07-.4-.26-.37.38-.56a2.85,2.85,0,0,1,.48-.13c0-.2,0-.27-.14-.36-.36.23-1.17.16-1.2.65a1.71,1.71,0,0,0,.14.49" transform="translate(0 0)"/><path class="cls-2" d="M8,11s1.26.42,1.37.43a1.12,1.12,0,0,0,.1-.31c-.2-.08-.76-.24-1-.32H8.06Z" transform="translate(0 0)"/><path class="cls-2" d="M34.58,6.25a.78.78,0,0,0,.28.16l.72-1.2A.7.7,0,0,0,35.29,5a2.9,2.9,0,0,0-.19.29Z" transform="translate(0 0)"/><path class="cls-2" d="M19.64,2.27c.16,0,.28-.19.44-.18h.36c0-.09,0-.06-.19-.18s-.17-.12-.27-.1a.81.81,0,0,0-.34.43" transform="translate(0 0)"/><path class="cls-2" d="M12.9,4.83c.11,0,.11,0,.16-.11a.4.4,0,0,1,.34-.2.39.39,0,0,0,.18-.06c0-.1,0,0-.24-.09a.57.57,0,0,0-.26,0,1.5,1.5,0,0,0-.22.5" transform="translate(0 0)"/><path class="cls-2" d="M22.25,27.88H22v-.36c-.07.06-.05.31,0,.39Z" transform="translate(0 0)"/><path class="cls-2" d="M8.63,13.84h0Z" transform="translate(0 0)"/><path class="cls-2" d="M20.15,3V2.88h.12c-.11,0-.11,0-.17.06s0,0,0,.07" transform="translate(0 0)"/><path class="cls-2" d="M14.84,4.73h.07c0-.06,0,0-.07-.08s0-.06,0,.06h0" transform="translate(0 0)"/><path class="cls-2" d="M13,23.73a.29.29,0,0,0,.15-.14h0l-.07.08" transform="translate(0 0)"/><path class="cls-2" d="M35.86,28.73c.08,0,0,0,.07-.08s-.07,0-.07.08" transform="translate(0 0)"/><path class="cls-2" d="M26.66,21h0c0-.08,0,0-.08,0h.08Z" transform="translate(0 0)"/><path class="cls-2" d="M39.58,25.81c-.09,0,0,0-.06.06l.06-.06" transform="translate(0 0)"/><path class="cls-2" d="M33.77,10.54v-.06c0-.06,0,0-.07,0Z" transform="translate(0 0)"/><path class="cls-1" d="M26.09,23.08" transform="translate(0 0)"/><path class="cls-1" d="M15,6.08c-.08-.15-.07-.15.1-.19l.27-.06a.42.42,0,0,0,.32-.11.43.43,0,0,1,.22-.06,1,1,0,0,0,.29-.07c-.12,0-.2-.1-.32,0a1,1,0,0,1-.65.15,3.57,3.57,0,0,1-1.33-.29A9.06,9.06,0,0,0,13,5.16l-2.62-.92-1.53-.5a3.17,3.17,0,0,0-1.56-.09c-.4.07-.78.19-1.18.28a.89.89,0,0,1-.8-.19.84.84,0,0,1-.2-1.09c.1-.18.17-.37.27-.55s.07-.15-.08-.21L4.07,1.4C4,1.4,4,1.33,4,1.27A2.3,2.3,0,0,1,4.15.54,1.52,1.52,0,0,1,4.47,0c0-.06.1,0,.14,0L5,.16c.31.11.64.16,1,.28l.26.1h.14A2.13,2.13,0,0,1,6.69.2.27.27,0,0,1,7,.11L8.57.66l3.6,1.25c.91.33,1.81.65,2.72,1a4.15,4.15,0,0,1,1.49.87c.14.13.14.13.33.12a.4.4,0,0,1,.23.08.55.55,0,0,1,.17.2.44.44,0,0,0,.29.24l2,.67a.22.22,0,0,0,.16,0,1.67,1.67,0,0,1,.63,0,8.28,8.28,0,0,0,1,.13,1.19,1.19,0,0,0,1-.55,4,4,0,0,0,.56-1.09.33.33,0,0,0,0-.4.15.15,0,0,1,0-.21l.4-.35c.09-.06.14,0,.21,0s.21.28.31.42v.07a8.26,8.26,0,0,1,.22,2.62,6.75,6.75,0,0,1-.51,2.08A7.07,7.07,0,0,1,22.9,8.9l-.19.32a.25.25,0,0,0-.07.27.43.43,0,0,1-.17.49.38.38,0,0,1-.41,0l-.38-.1c-.2-.06-.41-.15-.61-.23a.35.35,0,0,0-.14-.06c-.13,0-.19-.14-.3-.21s-.1,0-.16,0h-.13a.2.2,0,0,0-.19-.06H20s-.1-.18-.08-.27.11-.29.15-.44a1.39,1.39,0,0,0,.09-1,1.42,1.42,0,0,1-.1-.29A.11.11,0,0,0,20,7.29a1,1,0,0,1-.22-.19A.19.19,0,0,0,19.66,7s-.06,0,0-.09,0-.07-.11-.08a.39.39,0,0,0-.12,0h0c-.07-.1-.12-.13-.21-.1A.19.19,0,0,1,19,6.65h0a.18.18,0,0,0-.13-.12L17.15,6H17a.48.48,0,0,1-.29.25c-.07,0-.11.09-.18.12a.76.76,0,0,1-.3,0,.8.8,0,0,0-.34.07L14,6.87l-.9.21-.93.32c-.32.08-.63.15-1,.21s-.73.18-1.09.24L9.32,8C9,8,8.57,8.1,8.23,8.14c-.72.11-1.44.2-2.18.28-.36,0-.71.09-1.09.12l-1.08.13H2.22A4.43,4.43,0,0,1,1,8.53a1.5,1.5,0,0,1-.68-.36A1.26,1.26,0,0,1,0,7.66a.84.84,0,0,1,.17-.79,1.84,1.84,0,0,1,.67-.6,2.65,2.65,0,0,1,.78-.21A9.94,9.94,0,0,1,3,6H4a10.71,10.71,0,0,1,1.27.13L6,6.2l.73.07h.43l.71.06H13.6a5.52,5.52,0,0,0,.91-.11A1,1,0,0,0,15,6.08Zm6.13-.6ZM11.74,7h-.15a7.06,7.06,0,0,1-.92,0H8.74a3.64,3.64,0,0,0-.66,0H7.57l-.64-.18-.55-.12-.69-.09-.46-.06-.48-.06H2.94l-.37-.08H2a2.46,2.46,0,0,0-1.25.5,1.32,1.32,0,0,0-.43.48.4.4,0,0,0,.12.54A1.15,1.15,0,0,0,.64,8a1.33,1.33,0,0,0,.56.15H2.41A15.57,15.57,0,0,0,4.22,8c.64-.07,1.26-.16,1.93-.2a5,5,0,0,0,.66-.08h.32a.63.63,0,0,0,.38-.09h0a.15.15,0,0,0,.16,0h.1l.72-.07.45-.09H9a1.09,1.09,0,0,0,.44-.06l.49-.09a3.05,3.05,0,0,0,.67-.13L11,7.14,11.28,7A1.3,1.3,0,0,1,11.74,7Zm10.83.64a.34.34,0,0,0,.37-.05.58.58,0,0,0,.09-.8h0a.28.28,0,0,0-.4,0h0a.61.61,0,0,0-.23.41.51.51,0,0,0,.21.52ZM17.15,5.49h.11l.5.17c.45.15.9.32,1.37.47l.22.06c.07,0,.08,0,.1-.07s0-.07-.05-.08l-.84-.31-1.31-.45h-.1a.43.43,0,0,0,0,.16Zm3.67,2.06h0A3.6,3.6,0,0,0,20.37,7c-.16-.16-.34-.29-.49-.46s-.17-.09-.22,0a.14.14,0,0,0,0,.2h0c.11,0,.18.15.29.21a3.56,3.56,0,0,1,.53.41l.3.27ZM4.27,1v.05l.35.11c.24.09.49.14.72.24l.5.21S6,1.57,6,1.5a.09.09,0,0,0,0-.1H6l-.23-.07a1.36,1.36,0,0,0-.69-.09H4.91a3.17,3.17,0,0,1-.44-.12.36.36,0,0,0-.2-.06ZM23.44,3h-.05l.16.09s0,.07.07,0a.07.07,0,0,0,0-.09,2.42,2.42,0,0,0-.25-.31.1.1,0,0,0-.14,0h0A1.66,1.66,0,0,0,23,3c-.06.09,0,.12.05.15a1.09,1.09,0,0,0,.44-.06ZM20,5.41c-.09,0-.14,0-.16.07l-.09.35s0,.1,0,.12.08,0,.1-.07h0c.06-.08.1-.16.21-.16h.49s.09,0,0-.08-.1-.07-.16,0H20S20,5.43,20,5.41ZM16.15,5v.12l.49.15h.1v-.1a.16.16,0,0,0-.11-.1A2,2,0,0,1,16.22,5C16.15,5,16.15,5,16.15,5ZM23,3.78a3.76,3.76,0,0,1-.88,1.28h.08a.49.49,0,0,0,.29-.24,4.7,4.7,0,0,0,.39-.69.89.89,0,0,0,.11-.35Zm.46,3.58c-.06.11-.17.16-.26.25a.54.54,0,0,1-.34.12.47.47,0,0,0,.58-.3h0Zm-.32-.87.05.06c.05.07.18.1.18.22h.1a.36.36,0,0,0-.33-.27Z" transform="translate(0 0)"/><path class="cls-2" d="M33.61,10.77l-.11-.11c-.16-.19-.36-.29-.52-.47a16.18,16.18,0,0,0-1.4-1.07,4,4,0,0,0-.92-.48,2.05,2.05,0,0,1-.46-.25l-2-.77c-.18-.07-.37-.11-.54-.17a3.9,3.9,0,0,0-.57-.13,2.17,2.17,0,0,0-.56-.13,3.75,3.75,0,0,0-.67,0c0,.07.24.24.36.47a7.4,7.4,0,0,1,.6,1.11,9.76,9.76,0,0,1,.43,1.29,8,8,0,0,1,.4,2.17H27.3a.72.72,0,0,1-.41,0c-.3-.07-.06,0-.25,0a3.81,3.81,0,0,0-.59.07l-.52.14a4.86,4.86,0,0,1-.47-.94L25,11.35a7,7,0,0,0-.4-.77c-.07-.1-.09-.2-.17-.31a3.09,3.09,0,0,1-.14-.32c-.05-.08-.08,0-.11.07a4.48,4.48,0,0,1-.22.71c-.06.13,0,.18-.08.3s-.63,0-.8,0a5,5,0,0,0-1.26.41c-.25.12-.35.26-.52.35l-.2-.09c-.15-.07-.49-.15-.62-.21s0-.08-.18-.1c-.35-.05-.43-.32-.55-.2a.4.4,0,0,0,.14.15c.24.28.46.57.68.88a9.68,9.68,0,0,1,.71.85l.12.19a4.52,4.52,0,0,1,.53.71,4.15,4.15,0,0,1-1.57,0,7.38,7.38,0,0,1-2.19-.8l-.29-.2a4.61,4.61,0,0,1-.82-.89,6,6,0,0,1-.73-1A4.23,4.23,0,0,1,15.77,10l-.17-.69a2.93,2.93,0,0,1-.1-.78c0-.25-.07-.52-.06-.79s0-.26,0-.41.08-.24,0-.38-.1.07-.18.17a1.74,1.74,0,0,0-.11.18A.79.79,0,0,0,15,7.5l-.42.66a5.64,5.64,0,0,0-.4.67c-.08.19-.16.29-.24.48s-.07.17-.11.25-.19.59-.27.82,0,.2-.06.3l-.16.91a.52.52,0,0,1-.06.3c-.08.82,0,1.34-.06,2.1a6.73,6.73,0,0,0,.24,2l.36,1.43.55,1.23c.1.18.15.3.24.49s.09.14.13.23a5.42,5.42,0,0,0,.54.89l.42.66a6.18,6.18,0,0,0,.62.83c.11.13.17.32.3.43l.08.1a5.36,5.36,0,0,0,.9,1c.11,0,.1-.08.07-.14a.34.34,0,0,1-.06-.12,3.31,3.31,0,0,1-.15-1.17v-1.7a6.55,6.55,0,0,1,.2-1.16,3.06,3.06,0,0,1,.22-.49,6,6,0,0,1,.53-.88,1.48,1.48,0,0,1,.59-.49c.1-.1,0-.08.21-.14a1.39,1.39,0,0,1,.61-.08c.69-.06.8,1.06,1,1.09s.35-.33.52-.44.07,0,.11,0,0,0,.1-.07a1,1,0,0,1,.78,0,2.2,2.2,0,0,1,.82.81,2.94,2.94,0,0,1,.38.75c0,.1,0,.06.05.12s.05-.08.08-.21a2.28,2.28,0,0,1,.94-1.26,2.31,2.31,0,0,1,1-.25,1.36,1.36,0,0,1,.49.12c.24.1.16.26.32.32s.23-.45.66-.61a1.67,1.67,0,0,1,1.08,0,2.08,2.08,0,0,1,.69.56c0,.06.09.09.15.17s.18.25.26.38a.25.25,0,0,0,.12.19c.06,0-.06-.63,0-.87a1.5,1.5,0,0,1,.23-.74,2,2,0,0,1,.8-.68c.22-.09.19,0,.42,0a1.32,1.32,0,0,1,.29-1.08,1.44,1.44,0,0,1,1.45-.54,3.22,3.22,0,0,1,.86.18c.12,0,.15.07.25.11l.47.23,1,.75A3.36,3.36,0,0,1,36,17.49a2.42,2.42,0,0,1,.17.88c0,.12-.06.24,0,.31s.11-.06.14-.18a4.27,4.27,0,0,0,.19-.86,6.65,6.65,0,0,0,0-1.89,7.55,7.55,0,0,0-.23-1.15L36.07,14a5.06,5.06,0,0,0-.49-.88,10.21,10.21,0,0,0-1-1.37,10.1,10.1,0,0,0-.86-.87" transform="translate(0 0)"/></svg>