<svg id="Layer_1" data-name="Layer 1" xmlns="http://www.w3.org/2000/svg" viewBox="0 0 41.81 28.73"><defs><style>.cls-1{fill:#010100;}.cls-2{fill:#eaeaea;}.cls-3{fill:#ececec;}.cls-4{fill:#ededee;}.cls-5{fill-rule:evenodd;}.cls-6{fill:none;}.cls-7{fill:#b2b2b2;}</style></defs><path class="cls-1" d="M1.79,11a.28.28,0,0,0,0-.18V10.7h0s-.06,0-.07,0a.67.67,0,0,1,0-.2.67.67,0,0,1,0-.2v-.5h0a.43.43,0,0,0,0-.16V9.5h.05V9.44a.15.15,0,0,0,0-.13h0V9.1a1.09,1.09,0,0,1,.07-.3,2.59,2.59,0,0,1,.32-.59A2.17,2.17,0,0,1,2.45,8,2.2,2.2,0,0,1,3,7.75a3.05,3.05,0,0,1,.74,0H4.1a1.43,1.43,0,0,1,.47.14,1.21,1.21,0,0,1,.4.34,1.05,1.05,0,0,1,.17.31,1.21,1.21,0,0,1,0,.88c-.06.17-.13.33-.2.5s-.13.3-.19.46l-.16.39-.17.38c-.06.15-.12.29-.19.43A1.21,1.21,0,0,1,4,12a.78.78,0,0,1-.2.16,1,1,0,0,1-.29.13,1.06,1.06,0,0,1-.5,0A1.11,1.11,0,0,1,2.36,12a1.76,1.76,0,0,1-.55-.9V11a.15.15,0,0,1,0-.13S1.78,10.93,1.79,11ZM4.52,9.07V9h0a.47.47,0,0,0-.08-.38.48.48,0,0,0-.29-.23,3.4,3.4,0,0,0-.46-.09,3,3,0,0,0-.6,0,1.05,1.05,0,0,0-.24.06.76.76,0,0,0-.26.15,1.36,1.36,0,0,0-.24.24v.07h0a.9.9,0,0,1,0,.4v.18h0a.21.21,0,0,1,0,.11.43.43,0,0,0,0,.16h0V10a.43.43,0,0,1,0,.16v.23a.5.5,0,0,1-.06.24H2.23a.17.17,0,0,0,0,.1V11h0a1.31,1.31,0,0,0,.28.45.57.57,0,0,0,.8,0,.4.4,0,0,0,.1-.15,2.35,2.35,0,0,0,.19-.43l.18-.4a.94.94,0,0,1,.14-.33l.14-.33.15-.4c0-.1.09-.2.12-.3a.45.45,0,0,0,.07-.18Zm-2.37,2h0a.43.43,0,0,1,0,.16h0V11a.61.61,0,0,0,0-.19v-.09h0V11a.16.16,0,0,1,0,.07Zm.49-2.86V8.15H2.57l-.18.06a.06.06,0,0,0,0,.07h0l0,.07h.09l.09-.15h0ZM1.79,9V9.1h0V9H2c-.09,0-.1,0-.12.09h0Zm.43,2.49H2.16c-.06,0-.08,0,0,.09h0l.08.11h.08c.08,0,0,0,0-.06h0a.21.21,0,0,0-.06-.1ZM3,8S3,8,2.91,8H2.74a.06.06,0,0,0,0,.06.07.07,0,0,0,.1,0H3S3,8.06,3,8ZM1.86,10.74h0v.12a.14.14,0,0,1,0,.09v.11h0v.15h0v-.09a0,0,0,0,0,0,0h0v-.33ZM2,9.45H1.79s-.09.07-.08.11a0,0,0,0,1,0,0h.06v0h.16Zm.35.91h0v.14h0a.09.09,0,0,0,0-.07v-.06h0Zm0-1.21h0V9h0V9h0Zm-.54,1.26h0v.09h0v-.09Zm-.16-.2a3.69,3.69,0,0,0,0-.47Zm.66-.63Zm.09.63V9.84h0A2.29,2.29,0,0,0,2.38,10.21Z" transform="translate(0.15 -1.03)"/><path class="cls-2" d="M21.37,9h0Z" transform="translate(0.15 -1.03)"/><path class="cls-2" d="M21.16,9.05h0Z" transform="translate(0.15 -1.03)"/><path class="cls-2" d="M21.05,9.1h0Z" transform="translate(0.15 -1.03)"/><path class="cls-3" d="M20.43,9.53Z" transform="translate(0.15 -1.03)"/><path class="cls-2" d="M21,9.14h0Z" transform="translate(0.15 -1.03)"/><path class="cls-2" d="M20.9,9.17Z" transform="translate(0.15 -1.03)"/><path class="cls-2" d="M20.8,9.23Z" transform="translate(0.15 -1.03)"/><path class="cls-2" d="M21,9.13Z" transform="translate(0.15 -1.03)"/><path class="cls-3" d="M21.3,9.18Z" transform="translate(0.15 -1.03)"/><path class="cls-4" d="M21.35,9.07Z" transform="translate(0.15 -1.03)"/><path class="cls-2" d="M21.43,9.65Z" transform="translate(0.15 -1.03)"/><path class="cls-5" d="M6.31,15.63a13.64,13.64,0,0,0,.12,1.81c.09.42.1.85.23,1.26,0,.12.07.24.1.37a4.71,4.71,0,0,0,.25.75l.58,1.39A13.21,13.21,0,0,0,8.73,23a12.22,12.22,0,0,0,1.37,1.59c.16.15.31.3.51.47s.15.16.26.24c.44.32.61.52,1.12.85l.3.19c.12.07.18.13.3.2l1,.52a13.61,13.61,0,0,0,1.35.61l.18.08.51.21a2.06,2.06,0,0,0,.54.2l.92.31.39.11.58.16c.37.14.22,0,.57.16.19.06.38.1.57.14l.62.11c.41.1.83.17,1.25.23l2.27.16h.42l1.43-.07h.49l.45-.05h.47L29.12,29a23.24,23.24,0,0,0,3.06-.88,3.62,3.62,0,0,0,.71-.28c.24-.13.45-.16.7-.28s.69-.29,1-.47L34.9,27l.32-.19.3-.19.46-.29.12-.1a11.86,11.86,0,0,0,2.12-1.82c.06-.08.06,0,.11-.14s.09-.08.16-.16h0l0-.06a3.62,3.62,0,0,1,.34-.4c.24-.25.3-.43.41-.53s0-.09.11-.18.17-.28.3-.44l.37-.6c.06-.11.12-.2.18-.32l.32-.66a6.15,6.15,0,0,0,.28-.71c0-.13.09-.24.13-.37l.33-1.15a15.61,15.61,0,0,0,.3-1.66,8.09,8.09,0,0,0,0-1.84v-.47a12.21,12.21,0,0,0-.3-1.69l-.1-.37c-.08-.36-.34-1-.36-1.13a4.72,4.72,0,0,0-.45-1c-.25-.41-.47-.87-.73-1.24-.14-.2-.26-.39-.4-.58A12.19,12.19,0,0,0,37.88,7.1l-.51-.46a9.32,9.32,0,0,0-1.11-.88c-.22-.14-.53-.33-.75-.5l-.15-.1c-.3-.21-.65-.33-1-.53l-.17-.08L34,4.46,33,4a23.27,23.27,0,0,0-3.89-1.27A.23.23,0,0,1,29,2.67c-.36-.08-1.78-.32-2.11-.35H26.6A15.58,15.58,0,0,0,25,2.19c-.57,0-.92,0-1.37,0a1.62,1.62,0,0,0-.44,0H23l-.92.07h0a10.34,10.34,0,0,0-1.47.17c-.54.12-1.13.15-1.66.3L18.17,3l-.4.1c-.61.18-1.23.36-1.85.59a2.17,2.17,0,0,1-.35.15.32.32,0,0,0-.14,0c-.14.07-.61.22-.86.36s-.45.19-.67.33l-.18.07c-.22.1-.45.18-.66.3l-.71.43-.07,0-.86.6c-.11.09-.73.57-.81.66a2,2,0,0,1-.26.24A12,12,0,0,0,9,8.34l-.12.13-.4.47a11.79,11.79,0,0,0-.74,1.23l-.6,1.36-.24.74c-.08.26-.16.51-.22.77l-.2,1.23a10.26,10.26,0,0,0-.12,1.36M24.89,29.3H23.33a26.69,26.69,0,0,1-2.68-.25,26.82,26.82,0,0,1-2.8-.6c-.41-.1-.8-.26-1.2-.37L16,27.85a9.8,9.8,0,0,1-1.39-.55c-.46-.24-.79-.37-1.29-.65l-.61-.37a1.75,1.75,0,0,1-.29-.18l-.56-.42a1.94,1.94,0,0,1-.29-.21c-.24-.22-.54-.42-.8-.64l-.13-.12c-.07-.06-.09,0-.14-.11-.22-.27-.51-.48-.71-.74a5.7,5.7,0,0,1-.46-.52,1.86,1.86,0,0,0-.21-.28,4.56,4.56,0,0,1-.31-.42l-1.16-2a8.94,8.94,0,0,1-.52-1.42c0-.14-.08-.23-.11-.38s-.06-.24-.09-.4a.54.54,0,0,0,0-.18V18a3.24,3.24,0,0,0-.09-.4,6.21,6.21,0,0,1-.13-1.29v-.84a9.45,9.45,0,0,1,.07-1.07A1,1,0,0,1,6.85,14a7.83,7.83,0,0,1,.33-1.51.61.61,0,0,0,0-.19.21.21,0,0,1,.08-.18,8.63,8.63,0,0,1,.39-1L7.72,11c0-.08,0-.06.08-.16L8,10.5c0-.12.1-.19.16-.31s0-.12.08-.17.06-.08.1-.15l.08-.15c0-.07,0-.07.09-.15A5.25,5.25,0,0,1,8.85,9,.4.4,0,0,1,9,8.87l.21-.27c.11-.13.17-.31.31-.42s.13-.16.21-.25a2.73,2.73,0,0,0,.23-.25c.06-.08,0,0,.11-.11s.29-.32.36-.37L10.63,7c.08-.07.19-.19.25-.23s.1-.09.27-.21.17-.16.26-.22l.27-.2A1.19,1.19,0,0,1,12,5.91l.28-.19a18.3,18.3,0,0,1,1.85-1c.13,0,.22-.11.32-.15l1-.43a5.6,5.6,0,0,0,.68-.26,10.55,10.55,0,0,1,1.07-.39l.37-.1c.38-.11.73-.22,1.12-.3l.77-.21a23.54,23.54,0,0,1,2.5-.37,26.57,26.57,0,0,1,2.82-.09,16.76,16.76,0,0,1,1.73.12c.26,0,.55.1.83.12s1.65.28,2,.37a23,23,0,0,1,2.57.78c.44.19.91.35,1.33.57l.64.31c.51.26.7.35,1.23.67.22.13.43.25.61.37a9.6,9.6,0,0,1,1.23.89c.08.09,0,0,.14.12a1.71,1.71,0,0,1,.26.21l.5.45a9.35,9.35,0,0,1,.89,1l.41.54c.18.22.32.47.49.71a4.25,4.25,0,0,1,.27.46c0,.1.11.19.17.3a5.38,5.38,0,0,1,.31.64,3.07,3.07,0,0,0,.2.5,1.34,1.34,0,0,1,.07.18c0,.13.1.2.15.34a9,9,0,0,1,.31,1.13l.24,1.41v1.57a9.62,9.62,0,0,1-.26,2.07c0,.13,0,.27-.08.4-.15.42-.2.85-.43,1.46a14.56,14.56,0,0,1-.94,1.95,16.7,16.7,0,0,1-1.19,1.7l-.57.61a5.58,5.58,0,0,1-.61.58l-.26.22c-.18.16-.35.3-.54.44a7,7,0,0,1-.84.58c-.13.06-.14.11-.29.18l-.21.13c-.09.05-.14.11-.22.15l-.16.11a15.76,15.76,0,0,1-1.6.78.49.49,0,0,0-.17.06l-.17.07-.51.2-.19.06a2,2,0,0,0-.34.14l-.38.11L31,28.3l-.35.11a4,4,0,0,1-.57.14l-.19.07-.78.16a26.46,26.46,0,0,1-3.31.51Z" transform="translate(0.15 -1.03)"/><path class="cls-5" d="M23,4.94c-.26,0-1.09.08-1.48.13a18.65,18.65,0,0,0-3.32.69l-.3.11a.46.46,0,0,0-.29.07l-2.28.94a12.8,12.8,0,0,0-2.16,1.23l-.73.65a12.34,12.34,0,0,0-1.33,1.47l-.37.53c-.28.5-.44.7-.72,1.29a9.19,9.19,0,0,0-.77,4.71A8.39,8.39,0,0,0,10,19.58c.11.21.2.49.33.69l.7,1.1a3.83,3.83,0,0,1,.36.44,6.79,6.79,0,0,0,.77.84c.08.07.16.12.22.18s.12.14.2.21c.27.24.59.45.91.7l.23.15.25.16c.17.1.36.18.53.28s.45.23.64.35l.42.19.55.25c.09.05.2.07.28.12s1.69.62,2.07.74a8.08,8.08,0,0,0,1.29.31,4.42,4.42,0,0,1,.65.17c.22,0,.46.09.68.11l.69.09c.5.06,1,.09,1.5.1h.8a13.36,13.36,0,0,0,1.55,0,2.69,2.69,0,0,0,.74-.07c.23-.07.71-.07,1.06-.13l.68-.13.33-.07,1-.23c.15,0,.16-.07.29-.1a17.29,17.29,0,0,0,2-.65l.68-.33.28-.13c.52-.28,1-.52,1.55-.85l.24-.17.24-.17.45-.34.22-.19.22-.18.41-.38.19-.23c.23-.27.51-.56.73-.87.06-.08.11-.17.17-.24a4.76,4.76,0,0,0,.31-.47l.22-.4a.83.83,0,0,0,.08-.12l.25-.55a4.12,4.12,0,0,0,.23-.58c.06-.19.13-.38.19-.59a10,10,0,0,0,.25-4.32,3.26,3.26,0,0,0-.13-.68,2,2,0,0,0-.09-.3l-.19-.62a9.39,9.39,0,0,0-.8-1.66L37,10.27A9,9,0,0,0,35.4,8.61l-.47-.35c-.14-.1-.35-.26-.48-.34A5.27,5.27,0,0,0,34,7.6l-.55-.3c-.18-.09-.37-.17-.53-.26s-.82-.39-1.09-.51l-.59-.23c-.17-.06-.29-.14-.56-.23l-1.21-.4c-.13,0-.19-.06-.32-.09l-1.31-.3a3.82,3.82,0,0,0-.66-.12c-.37,0-.72-.11-1.09-.14A29.29,29.29,0,0,0,23,4.94m-.16.33h.68A21.94,21.94,0,0,1,26,5.39a17,17,0,0,1,2.66.37l.25.06.23.07.47.14c.17.08,1.26.39,1.58.56a1.06,1.06,0,0,0,.2.17,11.28,11.28,0,0,1,1.27.59L33.89,8l.38.23c.24.16.46.35.69.53l.32.29.63.59a10.1,10.1,0,0,1,.84,1l.12.2.35.55a8.7,8.7,0,0,1,1.21,3.7,1.5,1.5,0,0,0,0,.3,9.25,9.25,0,0,1-.18,2.23,10.9,10.9,0,0,1-.66,2.1c-.06.14-.13.27-.2.41a6,6,0,0,1-.45.77,10.84,10.84,0,0,1-.79,1l-.61.62a7.87,7.87,0,0,1-1.36,1.08c-.18.12-.4.22-.58.35a5.3,5.3,0,0,1-.57.33l-.1.06-1.16.54-.43.18-.88.34-2.92.74c-.31.05-.72.13-1.05.17s-.76.05-1.13.09a16.7,16.7,0,0,1-3,0l-2.14-.31a15,15,0,0,1-1.48-.32l-.46-.15c-.41-.11-.58-.2-.92-.31a3.34,3.34,0,0,1-.44-.17L16.43,25c-.42-.18-.83-.4-1.25-.59l-1.9-1.15c-.24-.19-.45-.34-.67-.55l-.32-.29a8.24,8.24,0,0,1-.56-.62,5,5,0,0,1-.54-.67,9.16,9.16,0,0,1-.7-1.16c-.08-.15-.12-.27-.2-.42a10.88,10.88,0,0,1-.46-1.36,7.31,7.31,0,0,1-.29-1.55,10.26,10.26,0,0,1,0-1.92,6.36,6.36,0,0,1,.14-.76.39.39,0,0,1,.06-.26c.06-.09,0-.11,0-.24s.15-.35.19-.49l.1-.24a7.11,7.11,0,0,1,.76-1.57A9.25,9.25,0,0,1,12.1,9.44a9,9,0,0,1,1.63-1.33c.57-.35,1-.54,1.52-.82.36-.18.75-.36,1.11-.51l1-.37c.51-.18,1.52-.5,2-.61h.28l.51-.14a24,24,0,0,1,2.68-.39Z" transform="translate(0.15 -1.03)"/><path class="cls-5" d="M26.43,21.93h.08c.08,0,0,.05,0,.08l-.48.62c-.26.34-.67,1-.92,1.31-.11.14-.23.32-.37.47s-.09.08-.07.21c.27.05,1.28,0,1.64,0l1.56.07a11.22,11.22,0,0,0,1.64,0c.51-.17.6-.62.54-1.16a1.94,1.94,0,0,0-.68,0,.66.66,0,0,1-.06.39,29.72,29.72,0,0,1-3.27,0,14.93,14.93,0,0,1,.93-1.3c.47-.71.59-.71,1.56-.64.39,0,.82-.08.88.25v.37H30c.12,0,.12-.76-.05-1s-.39-.26-.86-.32a2.53,2.53,0,0,0-.55,0l-1.68-.05c-.9,0-1.61-.21-2.23.6l-.74,1h-1.7a15.67,15.67,0,0,0,0-1.68,2.09,2.09,0,0,0-.5,0h-.5l-2.14,2.93a1.5,1.5,0,0,0-.29.42c.1.08.23,0,.36,0,.62,0,.39.09.66-.27l.1-.13c.13-.19.46-.58.52-.7a4.81,4.81,0,0,1,1,.07c.06.08-.13,1,0,1.09a6.91,6.91,0,0,0,.91,0,2.17,2.17,0,0,0,.88-.09,2,2,0,0,0,1-.93c.27-.38.55-.75.81-1.11.12-.17.27-.43.46-.51a3.3,3.3,0,0,1,.89,0m-5.57.88c0-.1.08-.16.12-.23a3.18,3.18,0,0,1,.51-.65v.88a2.44,2.44,0,0,1-.54,0Zm1.32,1.06v-.41h1.22a.78.78,0,0,1-.17.26c-.11.29-.55.2-1,.16Z" transform="translate(0.15 -1.03)"/><path class="cls-5" d="M35.34,23.59a2.37,2.37,0,0,0,.32.39l.3.37c-.23,0-1-.62-1.25-.35s.09.6.2.77a11.17,11.17,0,0,0,.82,1,1.09,1.09,0,0,0,.36-.28c0-.08-.64-.77-.68-.89a3.79,3.79,0,0,1,.42.18l.42.19c.14.06.31.17.46.08.38-.22-.06-.59-.18-.75-.26-.35-.54-.68-.83-1a1.28,1.28,0,0,0-.36.29" transform="translate(0.15 -1.03)"/><path class="cls-5" d="M34.81,25.76a1.06,1.06,0,0,0-1-1.11h0a1,1,0,0,0-1,1,1,1,0,0,0,.32.74,1.07,1.07,0,0,0,1.1.26,1,1,0,0,0,.64-.88m-1,.42a.5.5,0,0,1,0-1,.52.52,0,0,1,.52.49.49.49,0,0,1-.41.54h-.1Z" transform="translate(0.15 -1.03)"/><path class="cls-5" d="M11.63,23.76a1.6,1.6,0,0,0-.28-.4L11,23a.82.82,0,0,0-.34.27c0,.19.26.24.21.39a.5.5,0,0,1-.05-1,.56.56,0,0,1,.31.09c.39.27.12.55.37.58h.13a.49.49,0,0,0,.24,0,1,1,0,0,0-.4-.93,1,1,0,0,0-1.41.13.57.57,0,0,0-.12.18A1,1,0,0,0,10.29,24a1.09,1.09,0,0,0,1.34-.21" transform="translate(0.15 -1.03)"/><path class="cls-5" d="M29.92,26.29a2.37,2.37,0,0,0,.11.46,2,2,0,0,1,.13.48c-.15,0-.58-.76-.85-.82a.31.31,0,0,0-.35.19,2.47,2.47,0,0,0,.17.89,6.92,6.92,0,0,0,.25.89,2.37,2.37,0,0,0,.46-.11,3,3,0,0,0-.14-.53,4.44,4.44,0,0,1-.15-.52l.78.8c.17.18.55.13.46-.26l-.36-1.51c-.07-.1-.12-.08-.22-.06a.51.51,0,0,0-.24.1" transform="translate(0.15 -1.03)"/><path class="cls-5" d="M9.29,20.3a1,1,0,0,0-.08,2,1,1,0,0,0,.35-.05,1,1,0,0,0,.08-2,1,1,0,0,0-.35.05m0,.51a.48.48,0,0,1,.59.34.47.47,0,0,1-.33.59.49.49,0,0,1-.61-.32.5.5,0,0,1,.33-.61h0Z" transform="translate(0.15 -1.03)"/><path class="cls-5" d="M39.64,20,39.35,20l-.21-.06h-.07a.28.28,0,0,1-.27-.15c0-.15,0-.23.2-.22s.19.05.17.2v.14a1.55,1.55,0,0,0,.48.13.59.59,0,0,1,.07-.26c.12,0,.45.15.61.16a1.16,1.16,0,0,0,.12-.44,1.59,1.59,0,0,0-.55-.2c-.36-.1-.88-.36-1.24-.17a.71.71,0,0,0-.28,1,.69.69,0,0,0,.54.36,5,5,0,0,0,1.2.31,1.57,1.57,0,0,0,.09-.43.73.73,0,0,0-.28-.1l-.27-.1" transform="translate(0.15 -1.03)"/><path class="cls-5" d="M30.76,26c0,.14.58,1.62.65,1.78a2.16,2.16,0,0,0,.43-.14c.05-.07-.19-.61-.22-.68a4.52,4.52,0,0,1-.23-.71.51.51,0,0,1,.69.65c-.08.17-.18.18-.25.27a2.86,2.86,0,0,0,.15.41.93.93,0,0,0,.62-1.16.76.76,0,0,0-.17-.32.87.87,0,0,0-.78-.39,1.88,1.88,0,0,0-.89.29" transform="translate(0.15 -1.03)"/><path class="cls-5" d="M14.49,26.93a1.76,1.76,0,0,0,.44.15,6.73,6.73,0,0,1,.32-.73.51.51,0,0,1,.24.1c.16.17-.16.54-.19.79a1.56,1.56,0,0,0,.47.17,4,4,0,0,0,.23-.57c.18-.44-.07-.45-.07-.62l.34-.27c.05-.05.28-.22.3-.3a2.21,2.21,0,0,0-.5-.21,1.66,1.66,0,0,1-.27.26c-.1.09-.19.22-.34.21-.05-.17.19-.45.19-.62a2,2,0,0,0-.42-.2,5.81,5.81,0,0,0-.38.89,6,6,0,0,0-.36,1" transform="translate(0.15 -1.03)"/><path class="cls-5" d="M18.69,28.35c.1-.34.18-.7.28-1.06,0-.16.1-.41.3-.3s.14.33-.19.28a1,1,0,0,0-.11.39c.12.11.29,0,.21.32a1.8,1.8,0,0,0-.1.46,2.73,2.73,0,0,0,.48.1c.28-.89.09-.77,0-1,.08-.06.11,0,.19-.12a.4.4,0,0,0,.09-.21c.15-.58-.54-.88-1-.69s-.36.42-.45.75a7.27,7.27,0,0,0-.23,1Z" transform="translate(0.15 -1.03)"/><path class="cls-5" d="M12.81,25.92a1.09,1.09,0,0,0,.38.21h0l.48-.83c.07-.13.17-.38.36-.35s.07.41,0,.44-.15-.09-.3-.12a1.53,1.53,0,0,0-.21.4.7.7,0,0,1,.23.15c0,.15-.24.38-.29.56a.79.79,0,0,0,.4.22l.59-1A.83.83,0,0,0,14.6,25a.67.67,0,0,0-.8-.53l-.14,0c-.2.09-.26.21-.38.4a7.52,7.52,0,0,0-.56,1" transform="translate(0.15 -1.03)"/><path class="cls-5" d="M16.75,27.76c.12-.32.22-.66.33-1,.06-.15.1-.39.31-.35s.18.27.08.43c-.15,0-.19-.06-.3-.06a2.8,2.8,0,0,0-.13.41c.09.07.14,0,.26.09s-.15.44-.15.64a2.16,2.16,0,0,0,.44.1c.11-.36.33-.87.4-1.22a.67.67,0,0,0-1.21-.55,8.7,8.7,0,0,0-.43,1.21c-.05.14-.11.17.06.22a1,1,0,0,0,.34.09" transform="translate(0.15 -1.03)"/><path class="cls-5" d="M21.8,28.49v.36h.31c.21-.06.11.07.16-.45s0-1,.24-1,.25.21.2.38h-.28c-.12.61.07.36.28.48a2.57,2.57,0,0,0,0,.62,3.38,3.38,0,0,0,.45,0c0-.09.08-1,.11-1.16a.86.86,0,0,0-.09-.5.68.68,0,0,0-.94-.21.64.64,0,0,0-.25.29,3.79,3.79,0,0,0-.13,1.11" transform="translate(0.15 -1.03)"/><path class="cls-5" d="M37.43,24a1,1,0,0,0,.76-.47,1,1,0,0,0-.33-.32s-.38.43-.61.25a3.94,3.94,0,0,1,.36-.45,1.26,1.26,0,0,0-.31-.3c-.2.14-.3.42-.46.44-.09-.49.11-.39.2-.64a1,1,0,0,0-.33-.3.91.91,0,0,0-.28,1.16,1.09,1.09,0,0,0,1,.63" transform="translate(0.15 -1.03)"/><path class="cls-5" d="M38.21,22.82s.3.27.37.25l.18-.24c.19-.27.44-.53.22-.89-.34-.57-1.15,0-1.28-.1s0,.06,0,0,.21-.29.26-.44a1.26,1.26,0,0,0-.36-.24,2.61,2.61,0,0,0-.42.62.52.52,0,0,0,.4.62h0c.3.08.65-.15.84-.16s-.16.49-.21.63" transform="translate(0.15 -1.03)"/><path class="cls-5" d="M12.86,24.76l.07-.08h0a3.16,3.16,0,0,0,.37-.45,1.52,1.52,0,0,0-.35-.32,1.93,1.93,0,0,0-.27.3c-.09.1-.18.24-.34.24s0-.25.07-.38a2.6,2.6,0,0,0,.3-.36,1.78,1.78,0,0,0-.35-.32,2.41,2.41,0,0,0-.59.79,1.13,1.13,0,0,0,0,.41c0,.17-.34.34-.4.53a2.37,2.37,0,0,0,.34.29c.11-.05.3-.36.41-.45s.15,0,.33,0a.59.59,0,0,0,.29-.13" transform="translate(0.15 -1.03)"/><path class="cls-5" d="M7.56,19.52A1.88,1.88,0,0,0,7.7,20a2.84,2.84,0,0,0,.49-.17c.25-.09.19.06.43.14s.76-.15,1-.22a1.92,1.92,0,0,0-.15-.48,2.41,2.41,0,0,0-.41.13c-.14,0-.38.17-.42,0s.54-.29.72-.4a1.69,1.69,0,0,0-.14-.45,4.13,4.13,0,0,0-.5.15.73.73,0,0,0-.42.25,1,1,0,0,0-.13.22c-.06.24,0,.12-.64.37" transform="translate(0.15 -1.03)"/><path class="cls-5" d="M33.78,6.88a.77.77,0,0,0,.74-.48,4.89,4.89,0,0,0-.6-.41.46.46,0,0,0-.17.28c.1.06.21.11.23.19-.25.21-.69-.15-.43-.55A.34.34,0,0,1,34,5.76a.47.47,0,0,1,.29.34A1.3,1.3,0,0,0,34.61,6a.76.76,0,0,0-1.51.2,1.21,1.21,0,0,0,0,.18.71.71,0,0,0,.63.47" transform="translate(0.15 -1.03)"/><path class="cls-5" d="M29.27,3.61a.73.73,0,0,0-.48.28.75.75,0,0,0,.13,1,.74.74,0,0,0,.91-1.17.71.71,0,0,0-.56-.15m.46.88a.38.38,0,0,1-.69-.3.38.38,0,0,1,.69.3Z" transform="translate(0.15 -1.03)"/><path class="cls-5" d="M32.13,4.58a.88.88,0,0,0-.47.28.84.84,0,0,0-.15.57.74.74,0,0,0,.79.7A.75.75,0,0,0,33,5.34l0-.16a.74.74,0,0,0-.82-.61h0m0,.39a.37.37,0,0,1,.44.28.36.36,0,0,1-.28.43.36.36,0,0,1-.44-.25.34.34,0,0,1,.06-.32A.45.45,0,0,1,32.18,5Z" transform="translate(0.15 -1.03)"/><path class="cls-5" d="M8.43,10.58a3.73,3.73,0,0,1,.64.3c-.17.11-1-.14-1,.29,0,.16.41.3.69.44a4.12,4.12,0,0,0,.58.23,1,1,0,0,0,.14-.28l-.55-.26c-.09,0-.14,0-.16-.1a3.36,3.36,0,0,0,1-.09c.29-.26-.44-.51-.71-.62a2.66,2.66,0,0,0-.53-.21c0,.09-.1.21-.12.3" transform="translate(0.15 -1.03)"/><path class="cls-5" d="M39.26,14.25v.34c.2.07,1-.14,1.16,0,0,.22-.14.24-.22.1s0-.09-.14-.09-.12,0-.2.06,0,.24-.19.21,0-.11-.08-.22c-.3,0-.35,0-.33.17a.43.43,0,0,0,.6.43c.28-.1.15-.11.25-.18.62.43,1-.69.33-.88a4.92,4.92,0,0,0-1.21.06" transform="translate(0.15 -1.03)"/><path class="cls-5" d="M14.69,5.76h0V5.7c0-.06,0,0,.07.08s.54.5.77.46c.41-.08-.22-.87-.42-1.41-.15,0-.18.09-.31.15.06.18.28.5.31.67-.22-.1-.53-.53-.8-.48a.22.22,0,0,0-.17.24c0,.13.45.94.54,1.18A1.2,1.2,0,0,0,15,6.46a1.43,1.43,0,0,0-.14-.34A1,1,0,0,0,14.78,6a.4.4,0,0,1-.09-.21" transform="translate(0.15 -1.03)"/><path class="cls-5" d="M21.18,27.4h.34s0-.34,0-.37a6.77,6.77,0,0,0-1.09-.21l-.06.45.32.06a3.53,3.53,0,0,1-.08.72,4.07,4.07,0,0,0-.1.7,2.05,2.05,0,0,0,.49.06,4.45,4.45,0,0,1,.1-.72,4.16,4.16,0,0,1,.12-.69" transform="translate(0.15 -1.03)"/><path class="cls-5" d="M40.57,13.43c-.24-.11-1.13.28-1.15,0s.69-.17,1.12-.3a1.41,1.41,0,0,0,0-.29c0-.11-.12-.06-.22,0-.47.07-1.33,0-1.24.7a.47.47,0,0,0,.25.38c.22.13.32,0,.53,0a1.73,1.73,0,0,0,.59-.07c.22-.07.21,0,.19-.23s0-.08,0-.14" transform="translate(0.15 -1.03)"/><path class="cls-5" d="M35.93,8.27a.76.76,0,0,0,.23.24,3.86,3.86,0,0,0,.6-.54l.12-.11c.19-.16.38.09.11.27-.16-.07-.14-.28-.38.12.07.13.18.09,0,.26a1.14,1.14,0,0,0-.18.25.88.88,0,0,0,.25.22l.59-.56c.21-.19.4-.47.12-.79s-.56-.19-.84.07Z" transform="translate(0.15 -1.03)"/><path class="cls-5" d="M8.48,14.87h.1v-.1c0-.27.17-.19-.55-.31a1,1,0,0,1-.51-.13c0-.33.26-.2.27-.19a1.28,1.28,0,0,1,0,.21.55.55,0,0,0,.31,0v-.2l.48.06a1,1,0,0,0,0-.35,8.48,8.48,0,0,1-.88-.13.49.49,0,0,0-.61.33v0c-.09.46.21.6.57.64h.67" transform="translate(0.15 -1.03)"/><path class="cls-5" d="M20.11,3.87H20v.3h.22c.07.17.05.32.11.48l.33-.05c0-.3-.08-.6-.14-.9a.53.53,0,0,0-.57-.47c-.61.12-.43.72-.37,1.06a2.43,2.43,0,0,0,.08.47,1.09,1.09,0,0,0,.36,0A5.43,5.43,0,0,0,19.89,4c0-.24-.07-.31.05-.36s.23.1.22.25Z" transform="translate(0.15 -1.03)"/><path class="cls-5" d="M17.52,5.39l-.24-.78a.37.37,0,0,1,0-.29c.17-.11.32,0,.28.19a.16.16,0,0,0-.16.07,1.09,1.09,0,0,0,.07.3h.23c.07.13.09.3.16.44l.32-.11a9.24,9.24,0,0,0-.29-.89.49.49,0,0,0-.6-.35l-.16.08c-.42.3-.14.76,0,1.31.09.27.1.12.38.07" transform="translate(0.15 -1.03)"/><path class="cls-5" d="M11.43,8.76a.92.92,0,0,0,.26-.22V8.48l-.59-.62c-.11-.12-.07-.19,0-.28a.22.22,0,0,1,.21.11c0,.12,0,.11-.09.21a.63.63,0,0,0,.21.22c.11-.08.13-.2.27,0a1.25,1.25,0,0,0,.23.23,1.21,1.21,0,0,0,.24-.21,4.07,4.07,0,0,0-.55-.62c-.61-.63-1.32.12-.77.68Z" transform="translate(0.15 -1.03)"/><path class="cls-5" d="M13.34,5.76c.19.49.81,1,.23,1-.16-.2-.45-.81-.54-.89s-.19.11-.3.16a1.79,1.79,0,0,0,.2.39c.2.36.43.92,1,.63s0-1-.25-1.51a.51.51,0,0,0-.31.19" transform="translate(0.15 -1.03)"/><path class="cls-5" d="M23.67,3.61V4.2c0,.19,0,.16.2.16S24,4.36,24,4c0-.58,0-.75.24-.72.19.3-.14.29-.16.32a.76.76,0,0,0,0,.3.5.5,0,0,0,.58-.4A.48.48,0,0,0,24.54,3c-.26-.2-.85-.23-.86.61" transform="translate(0.15 -1.03)"/><path class="cls-5" d="M37.81,20.76l1.3.67a2,2,0,0,0,.44.21,2,2,0,0,0,.2-.38,11.67,11.67,0,0,0-1.76-.9,1.59,1.59,0,0,0-.18.4" transform="translate(0.15 -1.03)"/><path class="cls-5" d="M28.06,4.76a.81.81,0,0,0,.06-.31c-.2-.08-.39-.07-.39-.33l.46.1a.8.8,0,0,0,.06-.3c-.1,0-.35-.06-.42-.13.08-.24.37-.06.5-.12V3.53a.38.38,0,0,0,0-.15.7.7,0,0,0-.63,0,.73.73,0,0,0,.36,1.38" transform="translate(0.15 -1.03)"/><path class="cls-5" d="M28,26.76c0,.1.2,1.16.25,1.41a1.82,1.82,0,0,0,.11.46l.41-.09a13.18,13.18,0,0,0-.23-1.4c0-.06,0-.44-.13-.46h-.2l-.21.06" transform="translate(0.15 -1.03)"/><path class="cls-5" d="M25.76,4.42a.62.62,0,0,0,0-.33c-.18,0-.39,0-.4-.28.22,0,.42.12.47,0V3.59a1.22,1.22,0,0,0-.38-.07h-.06c.06-.25.36-.12.48-.17a.81.81,0,0,0,0-.31c-1.17-.32-1.33,1.52-.2,1.42" transform="translate(0.15 -1.03)"/><path class="cls-5" d="M10,8.36c0,.09.17.16.24.22s.24.14.14.25-.21-.07-.29-.07a1.27,1.27,0,0,0-.27-.18l-.2.27a1.47,1.47,0,0,0,.63.41c.19,0,.23-.12.38,0a1.29,1.29,0,0,0,.3.22.75.75,0,0,0,.21-.26A1.49,1.49,0,0,0,10.84,9c-.24-.2.12-.27-.36-.66a1.61,1.61,0,0,0-.3-.21,1.71,1.71,0,0,0-.21.26" transform="translate(0.15 -1.03)"/><path class="cls-5" d="M16,4.42c0,.28.34.56,0,.63a1.86,1.86,0,0,1-.24-.54.73.73,0,0,0-.34.14,1.32,1.32,0,0,0,.35.67c.08.07.15.06.27.09a2.44,2.44,0,0,0,.19.44h.06l.27-.09a1.82,1.82,0,0,0-.14-.39c-.07-.17.05-.16.09-.35a1.43,1.43,0,0,0-.2-.73,2.26,2.26,0,0,0-.33.13" transform="translate(0.15 -1.03)"/><path class="cls-5" d="M22.93,4c-.3.17-.56-.21-.51.37.41,0,.86.07.91-.33s-.21-.42-.37-.55-.17-.08-.12-.19h.4a.51.51,0,0,0,0-.3,1.63,1.63,0,0,0-.54,0,.39.39,0,0,0-.27.34c0,.4.5.47.49.69" transform="translate(0.15 -1.03)"/><path class="cls-5" d="M13.21,7.66c-.08,0-.07,0-.16,0,0-.23.11,0,.06-.24A.36.36,0,0,0,13,7.21l-.2-.08c-.13,0-.24,0-.24.1s.08,0,.15.07,0,.06-.15,0A.39.39,0,0,1,12.28,7c0-.25.11-.29.27-.43,0-.07-.11-.21-.15-.3a.7.7,0,0,0-.46.41.76.76,0,0,0,.48,1,.58.58,0,0,0,.19,0h.16c.06,0,.36.23.44,0" transform="translate(0.15 -1.03)"/><path class="cls-5" d="M35.66,8.08a.64.64,0,0,0,.22-.24c0-.07-.37-.28-.08-.6a.36.36,0,0,1,.51,0h0c.07.06,0,.08.14.11a.53.53,0,0,0,.23-.24.75.75,0,0,0-1.33.2.58.58,0,0,0,.13.66.65.65,0,0,0,.18.15" transform="translate(0.15 -1.03)"/><path class="cls-5" d="M38.49,11.76a.71.71,0,0,0,.31-.13c0-.07-.23-.41.17-.6s.52.25.56.29a.69.69,0,0,0,.31-.12.66.66,0,0,0-.33-.48.82.82,0,0,0-1.11.37h0a.66.66,0,0,0,.1.66" transform="translate(0.15 -1.03)"/><path class="cls-5" d="M8.74,12.7c-.05.15-.07.48-.5.4A.41.41,0,0,1,8,12.9c-.07-.17,0-.21,0-.36a.93.93,0,0,0-.33-.07c-.07.32-.1.48.08.72a.77.77,0,0,0,1.08.14A.93.93,0,0,0,9,13.19a1,1,0,0,0,.12-.34c0-.09,0-.08-.13-.1h-.2" transform="translate(0.15 -1.03)"/><path class="cls-5" d="M8.85,10a.87.87,0,0,0,.27.14c.07,0,.09-.12.13-.18a2.82,2.82,0,0,1,.49.25,3.72,3.72,0,0,0,.48.27.79.79,0,0,0,.17-.31l-.91-.53c0-.13.06-.12.1-.23a.75.75,0,0,0-.3-.17,7.07,7.07,0,0,0-.43.76" transform="translate(0.15 -1.03)"/><path class="cls-5" d="M18.15,3.76l.07.31c.13,0,.09-.06.26,0s.24,1,.28,1A.94.94,0,0,0,19.09,5c0-.21-.24-.87-.24-1s.14,0,.22-.09L19,3.59a5.17,5.17,0,0,0-.86.22" transform="translate(0.15 -1.03)"/><path class="cls-5" d="M37.65,9.68c-.11-.27-.42-.23,0-.53l.6-.5A1.09,1.09,0,0,0,38,8.38c-.1,0-.17.11-.25.17l-.25.21c-.36.3-.73.5-.34,1s.16.18.45,0" transform="translate(0.15 -1.03)"/><path class="cls-5" d="M31,5.61a1.19,1.19,0,0,0,.1-.32,2.41,2.41,0,0,1-.33-.15c0-.29.37-.82.33-1A1.15,1.15,0,0,0,30.75,4L30.37,5a.38.38,0,0,0,.11.48,1.42,1.42,0,0,0,.48.19" transform="translate(0.15 -1.03)"/><path class="cls-5" d="M26.86,4.61s.08-.29,0-.33-.22,0-.36-.11c0-.28.19-.81.15-1h-.33a6.81,6.81,0,0,0-.2,1,.4.4,0,0,0,.18.42,1.84,1.84,0,0,0,.52.1" transform="translate(0.15 -1.03)"/><path class="cls-5" d="M38.83,12.7l.34-.09c-.07-.4-.26-.37.38-.56a2.85,2.85,0,0,1,.48-.13c0-.2,0-.27-.14-.36-.36.23-1.17.16-1.2.65a1.71,1.71,0,0,0,.14.49" transform="translate(0.15 -1.03)"/><path class="cls-5" d="M7.83,12s1.26.42,1.37.43a1.12,1.12,0,0,0,.1-.31c-.2-.08-.76-.24-1-.32a2.58,2.58,0,0,0-.39,0Z" transform="translate(0.15 -1.03)"/><path class="cls-5" d="M34.43,7.28a.78.78,0,0,0,.28.16l.72-1.2a.7.7,0,0,0-.29-.19,2.9,2.9,0,0,0-.19.29Z" transform="translate(0.15 -1.03)"/><path class="cls-5" d="M19.49,3.3c.16,0,.28-.19.44-.18h.36c0-.09,0-.06-.19-.18s-.17-.12-.27-.1a.83.83,0,0,0-.34.43" transform="translate(0.15 -1.03)"/><path class="cls-5" d="M12.75,5.86c.11,0,.11,0,.16-.11a.4.4,0,0,1,.34-.2.39.39,0,0,0,.18-.06c0-.1,0,0-.24-.09a.57.57,0,0,0-.26,0,1.5,1.5,0,0,0-.22.5" transform="translate(0.15 -1.03)"/><path class="cls-5" d="M22.1,28.91h-.3v-.36c-.07.06-.05.31,0,.39Z" transform="translate(0.15 -1.03)"/><path class="cls-5" d="M8.48,14.87h.08v0h-.1Z" transform="translate(0.15 -1.03)"/><path class="cls-5" d="M20,4V3.91h.12c-.11,0-.11,0-.17.06s0,0,0,.07" transform="translate(0.15 -1.03)"/><path class="cls-5" d="M14.69,5.76h.07c0-.06,0,0-.07-.08s0-.06,0,.06h0" transform="translate(0.15 -1.03)"/><path class="cls-5" d="M12.86,24.76a.29.29,0,0,0,.15-.14h0l-.07.08" transform="translate(0.15 -1.03)"/><path class="cls-5" d="M35.71,29.76c.08,0,0,0,.07-.08s-.07,0-.07.08" transform="translate(0.15 -1.03)"/><path class="cls-5" d="M26.51,22V22c0-.08,0,0-.08,0h.06Z" transform="translate(0.15 -1.03)"/><path class="cls-5" d="M39.43,26.84c-.09,0,0,0-.06.06l.06-.06" transform="translate(0.15 -1.03)"/><path class="cls-5" d="M33.62,11.57v-.06c0-.06,0,0-.07,0Z" transform="translate(0.15 -1.03)"/><polyline class="cls-6" points="7.02 26.41 12.86 20.56 14.81 21.21"/><path class="cls-7" d="M12.06,20.29l.65,1.3" transform="translate(0.15 -1.03)"/><path class="cls-6" d="M11.67,20.81a1.34,1.34,0,0,1-.59.13c-.53,0-1-.29-1-.65" transform="translate(0.15 -1.03)"/><path class="cls-1" d="M25.94,24.11" transform="translate(0.15 -1.03)"/><path class="cls-1" d="M14.8,7.11c-.08-.15-.07-.15.1-.19l.27-.06a.42.42,0,0,0,.32-.11.4.4,0,0,1,.22-.06A.87.87,0,0,0,16,6.62c-.12,0-.2-.1-.32,0a1.06,1.06,0,0,1-.65.15,3.57,3.57,0,0,1-1.33-.29,9.06,9.06,0,0,0-.88-.29L10.2,5.27l-1.53-.5a3.17,3.17,0,0,0-1.56-.09c-.4.07-.78.19-1.18.28a.89.89,0,0,1-.8-.19.84.84,0,0,1-.2-1.09c.1-.18.17-.37.27-.55s.07-.15-.08-.21l-1.2-.49c-.06,0-.07-.07-.1-.13A2.54,2.54,0,0,1,4,1.57a1.42,1.42,0,0,1,.32-.51c0-.06.1,0,.14,0l.35.13c.31.11.64.16,1,.28l.26.1h.14a2.13,2.13,0,0,1,.33-.34.27.27,0,0,1,.34-.09l1.54.55,3.6,1.25c.91.33,1.81.65,2.72,1a4,4,0,0,1,1.49.87c.14.13.14.13.33.12a.4.4,0,0,1,.23.08.55.55,0,0,1,.17.2.46.46,0,0,0,.29.24l2,.67a.22.22,0,0,0,.16,0,1.67,1.67,0,0,1,.63,0,8.89,8.89,0,0,0,1,.13,1.18,1.18,0,0,0,1-.55,4,4,0,0,0,.56-1.09.33.33,0,0,0,0-.4.15.15,0,0,1,0-.21L23,3.65c.09-.06.14,0,.21,0s.21.28.31.42v.07a8.26,8.26,0,0,1,.22,2.62,7,7,0,0,1-.51,2.08,7.07,7.07,0,0,1-.48,1.09l-.19.32a.25.25,0,0,0-.07.27.42.42,0,0,1-.17.49.38.38,0,0,1-.41,0l-.38-.1c-.2-.06-.41-.15-.61-.23a.59.59,0,0,0-.14-.06c-.13,0-.19-.14-.3-.21s-.1,0-.16,0h-.13a.19.19,0,0,0-.19-.06l-.16,0c-.05,0-.1-.18-.08-.27s.11-.29.15-.44A1.39,1.39,0,0,0,20,8.68a1.42,1.42,0,0,1-.1-.29.11.11,0,0,0-.06-.07,1,1,0,0,1-.22-.19.19.19,0,0,0-.11-.07s-.06,0,0-.09,0-.07-.11-.08-.08,0-.12,0h0c-.07-.1-.12-.13-.21-.1a.18.18,0,0,1-.23-.12.18.18,0,0,0-.13-.12L17,7h-.13a.48.48,0,0,1-.29.25c-.07,0-.11.09-.18.12a.76.76,0,0,1-.3,0,.8.8,0,0,0-.34.07l-1.87.46-.9.21-.93.32c-.32.08-.63.15-.95.21s-.73.18-1.09.24L9.17,9c-.37.07-.75.13-1.09.17-.72.11-1.44.2-2.18.28-.36,0-.71.09-1.09.12L3.73,9.7H2.07a4.43,4.43,0,0,1-1.2-.14A1.5,1.5,0,0,1,.19,9.2a1.26,1.26,0,0,1-.3-.51A.84.84,0,0,1,.06,7.9a1.76,1.76,0,0,1,.67-.6,2.65,2.65,0,0,1,.78-.21A10.17,10.17,0,0,1,2.85,7H3.8a10.71,10.71,0,0,1,1.27.13l.77.1.73.07H7l.71.06h4.5a4.86,4.86,0,0,1,.54,0h.7a5.52,5.52,0,0,0,.91-.11A1,1,0,0,0,14.8,7.11Zm6.13-.6h0ZM11.59,8h-.15a7.06,7.06,0,0,1-.92,0H8.59a3.64,3.64,0,0,0-.66,0H7.42l-.64-.18L6.23,7.7l-.69-.09-.46-.06L4.6,7.49H2.79l-.37-.08H1.8a2.46,2.46,0,0,0-1.25.5,1.25,1.25,0,0,0-.43.48.4.4,0,0,0,.12.54,1.15,1.15,0,0,0,.25.12,1.33,1.33,0,0,0,.56.15H2.26a15.73,15.73,0,0,0,1.81-.13C4.71,9,5.33,8.91,6,8.87a5,5,0,0,0,.66-.08h.32a.62.62,0,0,0,.38-.09h0a.15.15,0,0,0,.16,0h.1l.72-.07.45-.09H8.8a1.09,1.09,0,0,0,.44-.06l.49-.09a3.05,3.05,0,0,0,.67-.13l.42-.09.31-.11C11.31,8,11.44,8,11.59,8Zm10.83.64a.34.34,0,0,0,.37-.05.58.58,0,0,0,.09-.8h0a.28.28,0,0,0-.4,0h0a.61.61,0,0,0-.23.41.51.51,0,0,0,.21.52ZM17,6.52h.11l.5.17c.45.15.9.32,1.37.47l.22.06c.07,0,.08,0,.1-.07s0-.07-.05-.08l-.84-.31L17.1,6.31H17a.83.83,0,0,0,0,.16Zm3.67,2.06h0A3.49,3.49,0,0,0,20.22,8c-.16-.16-.34-.29-.49-.46s-.17-.09-.22,0a.14.14,0,0,0,0,.21c.11,0,.18.15.29.21a3.56,3.56,0,0,1,.53.41l.3.27ZM4.12,2.05V2.1l.35.11c.24.09.49.14.72.24l.5.21s.13-.06.15-.13a.08.08,0,0,0,0-.1h0l-.23-.07a1.36,1.36,0,0,0-.69-.09H4.76a3.6,3.6,0,0,1-.44-.12.36.36,0,0,0-.2-.06Zm19.17,2h-.05l.16.09s0,.07.07,0a.07.07,0,0,0,0-.09,2.42,2.42,0,0,0-.25-.31.1.1,0,0,0-.15,0h0A1.66,1.66,0,0,0,22.8,4c-.06.09,0,.12.05.15a1.3,1.3,0,0,0,.44-.06ZM19.84,6.44c-.09,0-.14,0-.16.07l-.09.35s-.05.1,0,.12.08,0,.1-.07h0c.06-.08.1-.16.21-.16h.49s.09,0,0-.08-.1-.07-.16,0h-.4S19.84,6.46,19.84,6.44ZM16,6.07v.12l.49.15h.1s0-.07,0-.1a.16.16,0,0,0-.11-.1A1.74,1.74,0,0,1,16.07,6C16,6,16,6,16,6.07Zm6.8-1.26a3.76,3.76,0,0,1-.88,1.28H22a.49.49,0,0,0,.29-.24,4.7,4.7,0,0,0,.39-.69,1,1,0,0,0,.11-.35Zm.46,3.58c-.06.11-.17.16-.26.25a.58.58,0,0,1-.34.12.47.47,0,0,0,.58-.3v0h0Zm-.32-.87.05.06c.05.07.18.1.18.22h.1a.37.37,0,0,0-.33-.27Z" transform="translate(0.15 -1.03)"/><path class="cls-5" d="M33.46,11.8l-.11-.11c-.16-.19-.36-.29-.52-.47a15.72,15.72,0,0,0-1.4-1.07,4.25,4.25,0,0,0-.92-.48,1.86,1.86,0,0,1-.46-.25l-2-.77c-.18-.07-.37-.11-.54-.17a4.35,4.35,0,0,0-.57-.13,2.27,2.27,0,0,0-.56-.13,3.75,3.75,0,0,0-.67,0c0,.07.24.24.36.47a7.4,7.4,0,0,1,.6,1.11,9.29,9.29,0,0,1,.43,1.29,8,8,0,0,1,.4,2.17h-.35a.72.72,0,0,1-.41,0c-.3-.07-.06,0-.25,0a3.81,3.81,0,0,0-.59.07l-.52.14a4.86,4.86,0,0,1-.47-.94l-.08-.15a6.21,6.21,0,0,0-.4-.77c-.07-.1-.09-.2-.17-.31a2.61,2.61,0,0,1-.14-.32c-.05-.08-.08,0-.11.07a4.48,4.48,0,0,1-.22.71c-.06.13,0,.18-.08.3s-.63,0-.8,0a5,5,0,0,0-1.26.41c-.25.12-.35.26-.52.35l-.2-.09c-.15-.07-.49-.15-.62-.21s0-.08-.18-.1c-.35-.05-.43-.32-.55-.2a.4.4,0,0,0,.14.15c.24.28.46.57.68.88a9.68,9.68,0,0,1,.71.85l.12.19a4.23,4.23,0,0,1,.53.71,4.15,4.15,0,0,1-1.57,0A7.4,7.4,0,0,1,18,14.2L17.71,14a4.32,4.32,0,0,1-.82-.89,6.39,6.39,0,0,1-.73-1A4.23,4.23,0,0,1,15.62,11l-.17-.69a3,3,0,0,1-.1-.78c0-.25-.07-.52-.06-.79s0-.26,0-.41.08-.24,0-.38-.1.07-.18.17A2,2,0,0,0,15,8.3a.79.79,0,0,0-.14.23l-.42.66a5.64,5.64,0,0,0-.4.67c-.08.19-.16.29-.24.48s-.07.17-.11.25-.19.59-.27.82,0,.2-.06.3l-.16.91a.56.56,0,0,1-.06.3c-.08.82,0,1.34-.06,2.1a6.57,6.57,0,0,0,.24,2l.36,1.43.55,1.23c.1.18.15.3.24.49s.09.14.13.23a5.87,5.87,0,0,0,.54.89l.42.66a6.18,6.18,0,0,0,.62.83c.11.13.17.32.3.43l.08.1a5.33,5.33,0,0,0,.9,1c.11,0,.1-.08.07-.14a.34.34,0,0,1-.06-.12,3.34,3.34,0,0,1-.15-1.17v-1.7a6.55,6.55,0,0,1,.2-1.16,3.06,3.06,0,0,1,.22-.49,6,6,0,0,1,.53-.88,1.41,1.41,0,0,1,.59-.49c.1-.1.05-.08.21-.14a1.39,1.39,0,0,1,.61-.08c.69-.06.8,1.06,1,1.09s.35-.33.52-.44.07,0,.11,0,0,0,.1-.07a1,1,0,0,1,.78,0,2.27,2.27,0,0,1,.82.81,2.94,2.94,0,0,1,.38.75c0,.1,0,.06.05.12s.05-.08.08-.21a2.28,2.28,0,0,1,.94-1.26,2.31,2.31,0,0,1,1-.25,1.41,1.41,0,0,1,.49.12c.24.1.16.26.32.32s.23-.45.66-.61a1.66,1.66,0,0,1,1.08,0,2.06,2.06,0,0,1,.69.56c.05.06.09.09.15.17a3.62,3.62,0,0,1,.26.38.26.26,0,0,0,.12.19c.06,0-.06-.63,0-.87a1.47,1.47,0,0,1,.23-.74,2,2,0,0,1,.8-.68c.22-.09.19,0,.42,0a1.31,1.31,0,0,1,.29-1.08,1.51,1.51,0,0,1,.85-.54,1.7,1.7,0,0,1,.6,0,3.22,3.22,0,0,1,.86.18c.12,0,.15.07.25.11a5.08,5.08,0,0,1,.47.23l1,.75a3.31,3.31,0,0,1,.89,1.55,2.42,2.42,0,0,1,.17.88c0,.12-.06.24,0,.31s.11-.06.14-.18a4.27,4.27,0,0,0,.19-.86,6.65,6.65,0,0,0,0-1.89,7.32,7.32,0,0,0-.23-1.15L35.92,15a4.72,4.72,0,0,0-.49-.88,9.82,9.82,0,0,0-1-1.37,10.1,10.1,0,0,0-.86-.87" transform="translate(0.15 -1.03)"/></svg>